<?xml version="1.0" encoding="UTF-8"?>
<!-- Generator: Adobe Illustrator 24.1.1, SVG Export Plug-In . SVG Version: 6.00 Build 0)  -->
<svg version="1.1" id="Слой_1" xmlns="http://www.w3.org/2000/svg" xmlns:xlink="http://www.w3.org/1999/xlink" x="0px" y="0px" viewBox="0 0 1037.01 938.48" style="enable-background:new 0 0 1037.01 938.48;" xml:space="preserve">
<style type="text/css">
	.st0{fill:#74CDDD;stroke:#000000;stroke-width:2;stroke-miterlimit:10;}
	.st1{stroke:#000000;stroke-width:2;stroke-miterlimit:10;}
	.st2{fill:#F48F16;stroke:#000000;stroke-width:2;stroke-miterlimit:10;}
	.st3{fill:#F9F9F9;stroke:#000000;stroke-width:2;stroke-miterlimit:10;}
	.st4{fill:#F6D2A2;stroke:#000000;stroke-width:2;stroke-miterlimit:10;}
	.st5{fill:none;stroke:#000000;stroke-width:2;stroke-miterlimit:10;}
	.st6{clip-path:url(#SVGID_3_);fill:#74CDDD;stroke:#000000;stroke-width:2;stroke-miterlimit:10;}
	.st7{fill:#FFFFFF;stroke:#000000;stroke-width:2;stroke-miterlimit:10;}
	.st8{fill:#010101;}
	.st9{fill:#FFFFFF;}
	.st10{fill:#FCFBFA;stroke:#000000;stroke-width:2;stroke-miterlimit:10;}
	.st11{fill:#F48F16;}
	.st12{opacity:0.4;fill:#592F02;enable-background:new    ;}
	.st13{opacity:0.4;fill:#FCFBFA;enable-background:new    ;}
	.st14{opacity:0.4;fill:#050505;enable-background:new    ;}
	.st15{fill:none;stroke:#000000;stroke-miterlimit:10;}
</style>
<g>
	<path class="st0" d="M838.2,143.77c73.38-47.41,140.85,68.36,50.17,93.44L838.2,143.77z"/>
	<circle class="st1" cx="883.97" cy="186.88" r="18.83"/>
	<path class="st0" d="M502.16,255.29c-93.15-25.76-23.83-144.67,51.53-95.98L502.16,255.29z"/>
	<circle class="st1" cx="515.28" cy="205.7" r="20.86"/>
	<path class="st2" d="M793.07,103.5c-1.87-19.32,20.07-35.67,33.77-45.88c26.08-19.44,50.25-25.15,98.59-36.56   c24.83-5.86,30.37-5.59,35.91-3.26c25,10.49,27.17,54.02,28.73,82.92c1.18,21.78,3.17,71.1-27.42,107.08   c-10.23,12.03-17.09,14.32-19.59,15.02c-11.95,3.35-22.65-1.99-71.17-38.52c0,0-25.18-18.97-63.99-57.45   C799.86,118.84,793.95,112.68,793.07,103.5z"/>
	<path class="st2" d="M593.13,109.2c1.87-19.32-20.07-35.67-33.77-45.88c-26.08-19.44-50.25-25.15-98.59-36.56   c-24.83-5.86-30.37-5.59-35.91-3.26c-25,10.49-27.17,54.02-28.73,82.92c-1.18,21.78-3.17,71.1,27.42,107.08   c10.23,12.03,17.09,14.32,19.59,15.02c11.95,3.35,22.65-1.99,71.17-38.52c0,0,25.18-18.97,63.99-57.45   C586.34,124.55,592.25,118.37,593.13,109.2z"/>
	<path class="st3" d="M408.44,102.64c6.41-3.66,8.24-11.91,13.74-16.49c1.83-1.83,5.5,0,8.24,0.92   c12.82,5.5,18.32-10.07,21.07-20.15c1.83-9.16,16.49,7.33,22.9-2.75c4.58-6.41-1.83-21.98,10.99-17.4   c4.58,0.92,9.16,2.75,12.82,0.92c3.47-1.39,4.84-5.94,6.1-10.05c-12.24-3.49-26.35-6.82-43.52-10.88   c-24.83-5.86-30.37-5.59-35.91-3.26c-23.4,9.81-26.8,48.61-28.42,77.24C399.32,103.73,404.04,104.83,408.44,102.64z"/>
	<path class="st3" d="M979.83,96.93c-6.41-3.66-8.24-11.91-13.74-16.49c-1.83-1.83-5.5,0-8.24,0.92   c-12.82,5.5-18.32-10.07-21.07-20.15c-1.83-9.16-16.49,7.33-22.9-2.75c-4.58-6.41,1.83-21.98-10.99-17.4   c-4.58,0.92-9.16,2.75-12.82,0.92c-3.47-1.39-4.84-5.94-6.1-10.05c12.24-3.49,26.35-6.82,43.52-10.88   c24.83-5.86,30.37-5.59,35.91-3.26c23.4,9.81,26.8,48.61,28.42,77.24C988.94,98.03,984.22,99.13,979.83,96.93z"/>
	<path class="st2" d="M479.98,624.91c-2.29-18.63-31.91-27.62-56.16-37.87c-55.34-23.39-65.52-46.09-99.24-63.99   c-60.4-32.04-180.13-40.06-249.42,35.26c-64.64,70.28-59.96,185.49-5.22,259.87c73.44,99.79,222.14,105.99,292.51,53.54   c34.74-25.9,55.89-70.17,67.9-95.33c3.93-8.21,15.27-33.01,6.53-41.79c-3.18-3.2-7.09-2.35-22.2-6.53   c-8.77-2.43-13.33-4.34-19.59-6.53c-14.91-5.22-43.49-13.79-69.21-19.59c-46.02-10.38-58.88-6.51-67.9-19.59   c-6.02-8.72-8.48-22.26-2.61-30.03c1.76-2.34,7.41-8.29,28.73-6.53c29.74,2.46,36.11,15.48,62.68,23.51   c22.1,6.69,43.46,3.15,86.19-3.92c15.17-2.51,27.27-5.49,36.56-15.67C471.39,647.68,481.43,636.69,479.98,624.91z"/>
	<g>
		<path class="st4" d="M933.12,678.01c29.2,0.2,92.29,16.16,72.26,54.88c-13.37,46.67-66.56-1.61-98.32,6.78    C907.17,716.46,916.56,694.28,933.12,678.01z"/>
		<path class="st2" d="M968.63,682.46c-1.85-1.11-4.84-2.78-8.7-4.35c-4.27-1.74-7.6-2.55-8.7-2.83    c-0.94-0.24-20.51-5.26-30.69-11.82c-4.86-3.13-13.18-10.23-18.23-27.01l0,0c-0.68,26.03-2.24,46.73-3.49,60.53    c-2.12,23.5-4.18,36.08,3.87,44.62c7.56,8,20.06,8.25,27.84,7.61c6.58,0.79,13.26,1.53,20.03,2.23    c7.62,0.79,15.15,1.51,22.57,2.15c-3.75-4.86-8.71-12.21-12.85-22c-4.13-9.8-7.09-16.77-5.91-25.55    C956.02,693.93,964.47,685.87,968.63,682.46z"/>
		<path class="st5" d="M1005.55,733.59c1.18-6.48-10.54-14.02-26.21-16.86"/>
		<path class="st2" d="M952.31,686.81"/>
	</g>
	<path class="st2" d="M657.53,83.92c-7.55,0.7-32.99,3.39-83.81,20.62c-12.44,4.22-20.59,6.98-29.35,10.63   c-25.58,10.64-80.21,30.95-94.83,67.89c-20.64,52.17,32.21,80.97,24.79,174.58c-1.43,18.06-5.26,34.68-12.93,67.89   c-14.67,63.52-25.59,79.47-31.25,112.07c-1.18,6.78-4.49,28.06-2.46,55.32c0,0,2.87,38.71,17.54,72.92   c32.66,76.16,182.4,112.91,292.05,113.15c38.95,0.09,102.74-3.93,162.73-38.79c36.25-21.07,50.83-41.53,57.11-51.73   c15.9-25.77,18.69-50.47,21.55-78.67c4.73-46.56-1.91-83.63-5.39-99.15c-13.09-58.28-32.82-65.27-44.19-123.94   c-3.01-15.51-9.25-49.14-4.31-91.6c7.03-60.38,29.75-79.22,19.4-120.7c-2.03-8.15-9.38-35.51-33.41-52.81   c-11.14-8.01-21.58-10.78-42.38-14.92c-42.7-8.5-58.68-8.78-102.65-15.28c-33.99-5.03-53.24-9.11-85.6-8.6   C673.86,82.95,666.97,83.05,657.53,83.92z"/>
	<g>
		<g>
			<defs>
				<path id="SVGID_2_" d="M609,422.32c39.37,28.32,87.61,40.2,96.35,41.78c8.15,1.48,24.93,1.81,31.34,4.79      c0.85,0.4,3.93,1.95,6.96,0.87c1.54-0.55,1.71-1.29,3.04-2.18c4.86-3.22,10.43,1.27,14.8-1.74c0.72-0.49,1.8-1.47,2.61-3.48      c1.37-1.36,3.73-3.5,6.96-5.66c6.03-4.01,11.36-5.54,13.06-6.1c12.62-4.12,17.07-18.45,36.56-37c6.32-6.02,4.03-2.77,18.1-14.8      c14.3-12.22,22.99-20.98,31.17-31.97c0.54-0.72,1.17-1.55,1.98-2.72c1.82-2.64,9.8-14.39,16.33-32.81      c5.56-15.67,22.63-63.77,3.07-114.83c-22.61-59.01-86.45-102.28-133.63-95.92c-12.28,1.66-30.73,7.82-63.58,8.62      c-20.18,0.49-24.74-1.56-39.87-1.08c-4.24,0.13-44.39,1.77-75.43,20.47c-50.4,30.35-59.45,95.18-60.35,102.38      C506.52,346.68,598.72,414.92,609,422.32z"/>
			</defs>
			<clipPath id="SVGID_3_">
				<use xlink:href="#SVGID_2_" style="overflow:visible;"/>
			</clipPath>
			<path class="st6" d="M633.43,603.69c11.34,0,22.67-3.02,34.77-0.76c37.8,7.56,72.56,18.14,110.36,16.63     c47.18-1.35,95.72-3.23,142.4-12.32c5.31-49.95,0.36-102.41-2.47-150.22c-5.75-89.2,6.93-180.35-27.42-264.78     c-38.58-75.87-111.85-86.71-190.32-86.71h-0.1c-84.54,6.72-163,26.33-192.16,113.04c-28.07,83.67-1.41,169.41-4.87,254.8     c-1.29,31.83-5.71,68.39-6.79,104.89C542.32,591.22,586.62,604.82,633.43,603.69z"/>
		</g>
		<g>
			<path id="SVGID_1_" class="st5" d="M609,422.32c39.37,28.32,87.61,40.2,96.35,41.78c8.15,1.48,24.93,1.81,31.34,4.79     c0.85,0.4,3.93,1.95,6.96,0.87c1.54-0.55,1.71-1.29,3.04-2.18c4.86-3.22,10.43,1.27,14.8-1.74c0.72-0.49,1.8-1.47,2.61-3.48     c1.37-1.36,3.73-3.5,6.96-5.66c6.03-4.01,11.36-5.54,13.06-6.1c12.62-4.12,17.07-18.45,36.56-37c6.32-6.02,4.03-2.77,18.1-14.8     c14.3-12.22,22.99-20.98,31.17-31.97c0.54-0.72,1.17-1.55,1.98-2.72c1.82-2.64,9.8-14.39,16.33-32.81     c5.56-15.67,22.63-63.77,3.07-114.83c-22.61-59.01-86.45-102.28-133.63-95.92c-12.28,1.66-30.73,7.82-63.58,8.62     c-20.18,0.49-24.74-1.56-39.87-1.08c-4.24,0.13-44.39,1.77-75.43,20.47c-50.4,30.35-59.45,95.18-60.35,102.38     C506.52,346.68,598.72,414.92,609,422.32z"/>
		</g>
	</g>
	<g>
		<ellipse class="st7" cx="613.16" cy="229.36" rx="73.82" ry="69.31"/>
		<ellipse class="st7" cx="796.09" cy="220.69" rx="73.82" ry="69.31"/>
		<ellipse class="st8" cx="796.09" cy="257.06" rx="21.29" ry="23.47"/>
		<ellipse class="st9" cx="805.71" cy="262.41" rx="4.99" ry="5.96"/>
		<ellipse class="st8" cx="621.93" cy="262.41" rx="21.65" ry="23.47"/>
		<ellipse class="st9" cx="631.78" cy="267.76" rx="5.11" ry="5.96"/>
		<path class="st7" d="M742.05,325.65c-1.75-1.83-2.52-0.87-13.55-3.45c-8.78-2.05-13.16-3.07-14.31-3.8    c-0.53-0.33-2.11-1.46-3.08-0.9c-0.85,0.49-0.82,2.05-0.79,2.83c0.09,3.56-0.12,7.11,0.07,10.66c0.02,0.44,0.06,3.37,0.13,9.24    c0.05,3.78,0.04,3.6,0.07,5.84c0.15,10.37,0.39,11.69,0.7,12.91c0.63,2.41,1.32,5.11,3.62,7.6c3.19,3.45,7.32,4.22,9.96,4.71    c3.03,0.56,6.03,1.12,9.06-0.36c2.97-1.46,4.28-4.06,6.15-7.79c2.4-4.78,3.18-8.88,3.8-12.32c1.2-6.61,0.99-11.61,0.9-13.04    C744.44,331.24,744.26,327.97,742.05,325.65z"/>
		<path class="st7" d="M679.15,325.05c1.75-1.83,2.52-0.87,13.55-3.45c8.78-2.05,13.16-3.07,14.31-3.8c0.6-0.38,2.22-1.47,3.08-0.9    c0.82,0.53,0.52,2.26,0.36,3.44c-0.46,3.45,0,6.97-0.07,10.46c-0.08,4.16,0.01,7.52,0.07,9.64c0.08,2.71,0.11,2.58,0.2,5.43    c0.21,6.83,0.3,10.28-0.34,12.63c-0.44,1.59-1.33,4.7-4.03,7.47c-3.39,3.48-7.56,4.26-9.96,4.71c-3.03,0.56-6.03,1.12-9.06-0.36    c-2.97-1.46-4.28-4.06-6.15-7.79c-2.4-4.78-3.18-8.88-3.8-12.32c-1.2-6.61-0.99-11.61-0.9-13.04    C676.76,330.63,676.94,327.36,679.15,325.05z"/>
		<path class="st4" d="M656.09,314.15c0.13-2.23,0.51-7.68,4.16-12.86c1.76-2.49,3.69-4.1,4.89-5.07c1.53-1.24,4.85-3.7,9.6-5.25    c3.99-1.31,7.2-1.38,10.69-1.45c13.27-0.24,18.97-0.21,23.18-0.36c8.85-0.33,8.77-1.77,18.11-2.17c8.7-0.38,12.8,0.45,15.94,1.45    c4.3,1.38,7.26,3.27,9.78,4.89c2.65,1.7,7.61,4.93,12.14,10.87c2.44,3.19,3.94,5.04,4.89,8.15c1.92,6.34-0.16,11.84-0.72,13.22    c-0.65,1.59-3.03,6.8-8.88,9.96c-5.22,2.83-10.19,2.39-12.32,2.17c-2.73-0.27-2.84-0.79-12.14-3.98    c-5.51-1.9-5.87-1.85-10.33-3.44c-7.13-2.55-7.56-3.34-10.38-4.03c-6.14-1.5-12.84,0.46-15.21,1.35    c-5.29,1.98-4.54,3.34-10.66,6.03c-2.98,1.31-7.19,3.11-12.68,3.26c-3.49,0.09-9.01,0.25-13.58-3.26    C655.29,328.03,655.9,317.37,656.09,314.15z"/>
		<path class="st8" d="M679.57,294.27c-1.34-30.41,56.8-34.3,63.61-8.75C750,311.05,682.37,316.89,679.57,294.27z"/>
		<path class="st7" d="M710.81,339.89"/>
	</g>
	<path class="st3" d="M814.26,593.32c8.2-26.59,16.15-60.74,19.32-100.92c2.66-33.72,1.32-63.54-1.4-88.05   c-3.51,2.56-9.32,6.87-16.44,12.31c-15.47,11.83-31.48,22.96-46.58,35.26c-8.33,6.79-13.09,11.01-20.9,11.89   c-5.77,0.64-11.78-0.68-19.15-2.31c-6.07-1.35-7.32-2.09-13.93-3.92c-18.22-5.05-25.58-4.2-47.44-10.45l0,0   c-7.61-2.32-15.64-5.06-23.97-8.31c-13.33-5.21-25.28-10.86-35.82-16.49c1.67,2.27,4.16,5.59,7.25,9.55   c26.63,33.97,53.47,56.8,94.75,87.94C738.94,541.67,773.8,566.71,814.26,593.32z"/>
	<path class="st5" d="M748.25,463.79c7.83,12.39,15.67,24.8,23.5,37.19c10.48,16.58,23.93,38.12,32.58,59.65   c0.73,1.83,1.35,3.46,1.91,5.01l0,0c0,0,6.03,19.91,9.7,35.56c3.04,13,3.65,58.28-2.49,118.97"/>
	<path class="st3" d="M426.59,626.89"/>
	<path class="st10" d="M267.54,709.4c5.63,7.84,12.23,9.48,16.49,13.74c2.75,2.75-3.66,9.16-7.33,10.99   c-6.41,2.75-12.82,3.66-17.4,8.24c-3.66,4.58-1.83,10.07,0,14.65c6.41,14.65,21.98,12.82,35.72,17.4c2.75,1.83,7.33,7.33,5.5,12.82   c-4.58,9.16-19.23,11.91-13.74,22.9c7.33,13.74,20.15,5.5,32.97,10.07c0.92,0,0.92,4.58,0,7.33c-2.75,6.41-9.16,10.99-10.99,17.4   c-0.92,5.5,5.5,16.49,9.16,13.74c9.16-6.41,17.4-9.16,26.56-3.66c7.95,6.18,3.97,15.77,5.33,24.66c4.84-2.75,9.43-5.73,13.72-8.93   c34.74-25.9,55.89-70.17,67.9-95.33c3.93-8.21,15.27-33.01,6.53-41.79c-3.18-3.2-7.09-2.35-22.2-6.53   c-8.77-2.43-13.33-4.34-19.59-6.53c-7.76-2.71-36.1-11.81-69.21-19.59c-17.01-3.99-37.92-8.34-62.09-12.12   C263.53,695.46,263.21,703.37,267.54,709.4z"/>
	<path class="st4" d="M732.12,702.31c22.69,16.61,51.42,9.86,76.73,17.15c11.13,0.42,19.81,9.78,19.4,20.9   c-0.09,2.57-0.68,5.1-1.73,7.45c2.37,2.25,3.57,5.47,3.24,8.73c-8.64,37.28-53.75,24.28-80.32,20.33   C723.75,759.59,728.73,728.07,732.12,702.31L732.12,702.31z"/>
	<path class="st5" d="M824.77,754.81c0-4.54-8.91-8.22-19.92-8.22"/>
	<path class="st2" d="M765.04,709.42c-13.54-1.52-26.67-4.44-38.39-12.67l0,0c-3.81,27.86-9.42,61.94,19.53,80.64   c9.37,1.34,20.78,3.63,32.34,4.91c-8.17-10.57-13.65-22.45-14.22-35.26C763.78,735.25,763.27,721.97,765.04,709.42z"/>
	<path class="st11" d="M726.07,776.63c-6.3-0.36-12.59-0.72-18.89-1.08c-5.94,0-10.79-4.84-10.79-10.74v-50.24   c0-5.91,4.86-10.74,10.79-10.74c4.92-4.24,9.83-8.48,14.75-12.72c3.75,3.5,8.34,8.69,11.98,15.87c1.36,2.66,2.38,5.23,3.17,7.59   v50.24c13.18,5.36,19.52,9.07,19.02,11.18C755.52,778.43,745.5,778.65,726.07,776.63z"/>
	<path class="st4" d="M701.35,550.2c7.78-31.86-28.34-26.44-44.99-20.87c-16.64,5.57-17.07-3.41-24.51,14.45   c-4.78,11.68-8.86,23.63-12.19,35.8c20.32,8.33,42.93,9.18,63.82,2.39c10.51-3.76,32.53-18.96,17.8-30.89"/>
	<path class="st2" d="M581.12,508.49c6.04,4.9,17.29,12.83,33.08,17.41c14.8,4.3,29.45,4.45,31.61,3.55   c0.11-0.05,0.61-0.27,1.04-0.07c1.08,0.51,0.82,3.33,0.44,5.66c-1.42,8.64-5.16,14.71-6.53,23.07c-0.64,3.88-1.74,9.49,0.44,15.67   c2.9,8.2,9.46,11.64,8.27,13.71c-0.86,1.51-4.68,0.3-13.28-0.65c-6.87-0.76-9.34-0.54-13.71-0.87   c-11.47-0.87-26.49-4.84-37.87-8.27"/>
	<path class="st5" d="M701.67,551.66c0-1.62-7.24-2.93-16.21-2.93"/>
	<path class="st4" d="M857.85,552.69c-5.78,18.05,20.95,18.71,31.8,16.11c21.19-5.76,39.65-18.85,52.09-36.94   c-9.46-8.35-19.41-16.13-29.8-23.28c-16.01-10.88-11.45-3.13-28.42,1.33c-16.97,4.46-50.17,19.7-26.22,42.09"/>
	<path class="st2" d="M935.09,451.28c-2.37,7.41-7.44,20.2-18.15,32.69c-10.03,11.69-22.21,19.85-24.5,20.27   c-0.12,0.02-0.66,0.1-0.91,0.51c-0.63,1.02,1.14,3.23,2.73,4.97c5.92,6.45,12.37,9.48,18.09,15.73c2.66,2.89,6.67,6.99,8.21,13.35   c2.06,8.45-1.55,14.93,0.59,16.01c1.55,0.79,4.09-2.31,10.75-7.81c5.33-4.4,7.52-5.57,11-8.24c9.12-7.01,19.52-18.56,27.16-27.65"/>
	<path class="st5" d="M857.3,552c0-5.77,6.91-10.43,15.45-10.43"/>
	<path class="st12" d="M746.19,777.39c-0.19,2.23-43.36,1.81-87.44-4.14c-41.97-5.67-71.63-14.64-78.62-16.74   c-37.33-11.17-60.22-22.84-68.83-27.42c0,0-18.73-9.68-40.49-28.22c-6.22-5.3-7.42-6.87-7.12-7.33c0.98-1.47,18.4,8.35,34.08,17.57   c26.48,15.56,48.32,21.92,80.31,32.65C660.05,771.25,746.45,774.23,746.19,777.39z"/>
	<path class="st12" d="M895.38,743.43c-3.27,1.87-7.51,3.99-8.25,4.36l0,0c-4.96,2.44-8.76,3.98-10.99,4.89   c-5.79,2.37-13,5.38-22.79,9.53c0,0-9.58,4.18-23.52,6.77c-3.98,0.74-4.97,0.7-5.04,0.46c-0.27-0.83,8.97-4.48,17.42-7.63   c5.4-2.02,3.93-1.74,10.52-4.54c7.13-3.03,15.54-6.59,26.25-10.55c1.93-0.71,4.33-1.56,9.14-3.26c12.19-4.31,13.88-4.74,14.02-4.46   C902.34,739.45,898.27,741.77,895.38,743.43z"/>
	<path class="st12" d="M971.57,753.01c-0.09,0.45-8.16-1.19-20.79-2.61c-6.86-0.77-12.5-1.19-16.22-1.41   c-0.83,0.08-2.26,0.18-4.04,0.22c-13.51,0.28-21.78-4.1-24.14-5.44c-2.51-1.43-4.44-3.21-4.26-3.53c0.35-0.61,8.82,3.41,15.68,5.38   c1.43,0.41,3.2,0.84,5.44,0.98c1.49,0.09,2.07-0.03,3.7,0c2.85,0.05,4.89,0.46,5.98,0.65c6.67,1.16,14.81,0.26,25.79,2.18   C965.73,750.65,971.64,752.63,971.57,753.01z"/>
	
		<ellipse transform="matrix(0.6201 -0.7846 0.7846 0.6201 47.1005 456.0839)" class="st13" cx="494.45" cy="179.41" rx="30.53" ry="18.64"/>
	<path class="st13" d="M116.48,555.98c-20.41,19.99-30.17,48.44-25.82,51.65c4.17,3.08,19.33-18.5,50.93-40.16   c46.9-32.14,85.11-33.63,84.22-38.2C224.66,523.28,156.71,516.57,116.48,555.98z"/>
	<path class="st12" d="M442.82,663.52c-0.01,0.35-2.81,0.38-8.39,0.91c-13.86,1.31-23.23,3.59-28.08,4.57   c-9.11,1.84-31.39,6.32-53.34,1.92c-17.74-3.56-25.04-10.87-55.7-21.51c-4.35-1.51-11.09-3.76-19.91-3.59   c-9.18,0.17-16.04,2.85-16.26,2.21c-0.27-0.82,10.34-5.79,17.89-8.09c24.83-7.52,43.08,6.09,72.95,15.11   C399.31,669.35,442.87,662.17,442.82,663.52z"/>
</g>
<path class="st14" d="M344.33,883.04c0.66,4.31-58.46,28.33-128.06,19.15c-69.68-9.19-121.3-47.88-119.63-51.67  c1.45-3.29,42.52,20.9,110.82,31.57C287.65,894.62,343.69,878.88,344.33,883.04z"/>
<g>
	<path class="st15" d="M922.73,786.75c2.64,1.61,4.37,1.65,5.43,1.43c1.91-0.39,2.64-1.85,5.07-4.3c0.89-0.9,4.22-4.24,4.7-4.01   c0.78,0.38-6.44,10-8.53,17.21c-0.93,3.2-1.41,5.48-1.41,5.48c-0.54,2.53-0.45,2.9-0.91,4.51c-0.87,3.05-1.37,4.8-3.26,6.01   c-1.86,1.19-4.94,1.79-6.15,0.86c-1.91-1.47,1.54-6.22,1.81-6.59c1.76-2.39,3.92-3.79,4.7-4.3c8.75-5.69,13.13-8.54,15.56-10.88   c4.75-4.58,5.53-8.13,9.05-8.3c2.07-0.1,3.86,1.02,5.07,2"/>
	<path class="st15" d="M928.65,800.46c0.32-0.18,1.36-0.72,2.71-0.59c1.07,0.11,2.24,0.63,2.71,1.4c1.05,1.7-2.1,3.36-3.32,7.79   c-0.26,0.94-0.96,3.45,0.2,3.97c1.05,0.47,3.09-0.93,3.6-1.29"/>
	<path class="st15" d="M942.15,801.65c-0.73,0.02-1.98,0.14-3.05,0.81c-1.59,0.99-1.77,2.54-2.04,4.83   c-0.25,2.13-0.37,3.43,0.75,4.46c0.07,0.06,1.39,1.24,2.92,1.02c1.2-0.17,1.87-1.11,2.58-2.09c0,0,0.68-0.94,0.97-2.06   c0.03-0.12,0.1-0.42,0.14-0.68c0.03-0.2,0.05-0.4,0.05-0.4s0-0.01,0-0.03c0.02-0.28-0.22-2.13-0.27-2.74   c-0.09-1.19,0.26-1.55-0.2-2.2c-0.11-0.15-0.33-0.45-0.68-0.48c-0.5-0.05-1.02,0.46-1.22,0.91c-0.2,0.45,0.02,0.6,0.14,1.5   c0.16,1.23-0.16,1.65,0.34,2.15c0.16,0.17,0.34,0.25,0.68,0.43c0.76,0.39,1.49,0.56,1.97,0.64"/>
	<path class="st15" d="M954.16,791.34c-0.15,0.37-0.73,1.83-0.88,2.2c-1.67,4.18-1.67,4.18-1.83,4.56   c-1.71,4.01-2.14,3.37-2.71,5.48c-0.74,2.72,0.16,3.07-0.88,5.37c-0.49,1.08-1.16,2.05-0.61,2.58c0.45,0.43,1.59,0.45,2.24,0.38   c0.4-0.04,0.73-0.14,0.95-0.21"/>
	<path class="st15" d="M949.69,795.04c0.37,0.18,2.79,1.3,4.89,0.48c0.27-0.11,0.58-0.26,0.88-0.48"/>
	<path class="st15" d="M953.49,804.28c0.06,1.25-0.07,2.24-0.2,2.9c-0.29,1.47-0.73,2.22-0.41,3.44c0.1,0.36,0.38,1.43,1.15,1.56   c0.62,0.1,1.3-0.44,1.56-0.64c0.37-0.3,0.54-0.56,0.81-0.97c0.96-1.42,1.06-1.31,1.29-1.77c0.62-1.28,0.13-2.68-0.07-2.68   c-0.26,0-0.18,2.35-1.22,6.28c-0.69,2.61-1.45,4.3-3.19,5.21c-0.36,0.19-1.2,0.63-1.9,0.38c-0.62-0.22-0.96-0.93-0.88-1.77"/>
	<path class="st15" d="M963.94,804.6c-0.71-0.57-2.29-0.51-3.19,0.05c-0.33,0.21-0.86,0.67-0.88,4.03c-0.03,3.25,0.46,3.58,0.75,3.7   c0.75,0.31,1.94-0.06,2.58-0.59c0.47-0.39,0.59-0.85,0.75-1.4c0.19-0.67,0.06-0.84,0.14-1.77c0.1-1.34,0.4-1.51,0.34-2.52   C964.36,805.35,964.34,804.92,963.94,804.6z"/>
	<path class="st15" d="M964.42,808.66L964.42,808.66c0-0.53,0-0.64,0-0.64s0.02,0.32,0.07,1.93c0.03,0.97,0.03,1.27,0.34,1.56   c0.04,0.04,0.48,0.44,1.15,0.43c0.63-0.01,1.23-0.37,1.49-0.91"/>
</g>
</svg>