<?xml version="1.0" encoding="UTF-8"?>
<!DOCTYPE svg PUBLIC "-//W3C//DTD SVG 1.1//EN" "http://www.w3.org/Graphics/SVG/1.1/DTD/svg11.dtd">
<!-- Creator: CorelDRAW 2017 -->
<svg xmlns="http://www.w3.org/2000/svg" xml:space="preserve" width="1118px" height="1118px" version="1.1" style="shape-rendering:geometricPrecision; text-rendering:geometricPrecision; image-rendering:optimizeQuality; fill-rule:evenodd; clip-rule:evenodd"
viewBox="0 0 265.4 265.4"
 xmlns:xlink="http://www.w3.org/1999/xlink">
 <defs>
  <style type="text/css">
   <![CDATA[
    .str7 {stroke:black;stroke-width:1.6;stroke-linecap:round;stroke-linejoin:round;stroke-miterlimit:22.9256}
    .str16 {stroke:black;stroke-width:3.83;stroke-linecap:round;stroke-linejoin:round;stroke-miterlimit:22.9256}
    .str17 {stroke:black;stroke-width:3.83;stroke-linecap:round;stroke-linejoin:round;stroke-miterlimit:22.9256}
    .str34 {stroke:black;stroke-width:4.26;stroke-linecap:round;stroke-linejoin:round;stroke-miterlimit:22.9256}
    .str8 {stroke:black;stroke-width:4.26;stroke-linecap:round;stroke-linejoin:round;stroke-miterlimit:22.9256}
    .str14 {stroke:black;stroke-width:4.26;stroke-linecap:round;stroke-linejoin:round;stroke-miterlimit:22.9256}
    .str27 {stroke:black;stroke-width:4.26;stroke-linecap:round;stroke-linejoin:round;stroke-miterlimit:22.9256}
    .str20 {stroke:black;stroke-width:4.26;stroke-linecap:round;stroke-linejoin:round;stroke-miterlimit:22.9256}
    .str11 {stroke:black;stroke-width:4.26;stroke-linecap:round;stroke-linejoin:round;stroke-miterlimit:22.9256}
    .str29 {stroke:black;stroke-width:4.26;stroke-linecap:round;stroke-linejoin:round;stroke-miterlimit:22.9256}
    .str21 {stroke:black;stroke-width:4.26;stroke-linecap:round;stroke-linejoin:round;stroke-miterlimit:22.9256}
    .str28 {stroke:black;stroke-width:4.26;stroke-linecap:round;stroke-linejoin:round;stroke-miterlimit:22.9256}
    .str1 {stroke:black;stroke-width:4.26;stroke-linecap:round;stroke-linejoin:round;stroke-miterlimit:22.9256}
    .str18 {stroke:black;stroke-width:4.26;stroke-linecap:round;stroke-linejoin:round;stroke-miterlimit:22.9256}
    .str35 {stroke:black;stroke-width:4.26;stroke-linecap:round;stroke-linejoin:round;stroke-miterlimit:22.9256}
    .str0 {stroke:black;stroke-width:4.26;stroke-linecap:round;stroke-linejoin:round;stroke-miterlimit:22.9256}
    .str12 {stroke:black;stroke-width:4.26;stroke-linecap:round;stroke-linejoin:round;stroke-miterlimit:22.9256}
    .str26 {stroke:black;stroke-width:4.26;stroke-linecap:round;stroke-linejoin:round;stroke-miterlimit:22.9256}
    .str24 {stroke:black;stroke-width:4.26;stroke-linecap:round;stroke-linejoin:round;stroke-miterlimit:22.9256}
    .str13 {stroke:black;stroke-width:4.26;stroke-linecap:round;stroke-linejoin:round;stroke-miterlimit:22.9256}
    .str4 {stroke:black;stroke-width:4.2;stroke-linecap:round;stroke-linejoin:round;stroke-miterlimit:22.9256}
    .str10 {stroke:black;stroke-width:2.13;stroke-linecap:round;stroke-linejoin:round;stroke-miterlimit:22.9256}
    .str23 {stroke:black;stroke-width:2.13;stroke-linecap:round;stroke-linejoin:round;stroke-miterlimit:22.9256}
    .str22 {stroke:black;stroke-width:2.13;stroke-linecap:round;stroke-linejoin:round;stroke-miterlimit:22.9256}
    .str6 {stroke:black;stroke-width:2.13;stroke-linecap:round;stroke-linejoin:round;stroke-miterlimit:22.9256}
    .str5 {stroke:black;stroke-width:2.13;stroke-linecap:round;stroke-linejoin:round;stroke-miterlimit:22.9256}
    .str30 {stroke:black;stroke-width:2.13;stroke-linecap:round;stroke-linejoin:round;stroke-miterlimit:22.9256}
    .str31 {stroke:black;stroke-width:2.13;stroke-linecap:round;stroke-linejoin:round;stroke-miterlimit:22.9256}
    .str2 {stroke:black;stroke-width:2.13;stroke-linecap:round;stroke-linejoin:round;stroke-miterlimit:22.9256}
    .str3 {stroke:black;stroke-width:2.13;stroke-linecap:round;stroke-linejoin:round;stroke-miterlimit:22.9256}
    .str33 {stroke:black;stroke-width:2.13;stroke-linecap:round;stroke-linejoin:round;stroke-miterlimit:22.9256}
    .str32 {stroke:black;stroke-width:2.13;stroke-linecap:round;stroke-linejoin:round;stroke-miterlimit:22.9256}
    .str15 {stroke:black;stroke-width:2.13;stroke-linecap:round;stroke-linejoin:round;stroke-miterlimit:22.9256}
    .str9 {stroke:black;stroke-width:4.14;stroke-linecap:round;stroke-linejoin:round;stroke-miterlimit:22.9256}
    .str19 {stroke:black;stroke-width:2.14;stroke-linecap:round;stroke-linejoin:round;stroke-miterlimit:22.9256}
    .str25 {stroke:black;stroke-width:3.86;stroke-linecap:round;stroke-linejoin:round;stroke-miterlimit:22.9256}
    .fil0 {fill:none}
    .fil10 {fill:black}
    .fil6 {fill:#3A2B20}
    .fil8 {fill:#55ACB7}
    .fil12 {fill:#666666}
    .fil17 {fill:#678707}
    .fil15 {fill:#6A7A39}
    .fil9 {fill:#6AD7E5}
    .fil5 {fill:#7B3D24}
    .fil18 {fill:#7E9C22}
    .fil19 {fill:#843636}
    .fil2 {fill:#967E56}
    .fil20 {fill:#A54444}
    .fil21 {fill:#A6BD60}
    .fil13 {fill:#AF7133}
    .fil14 {fill:#BAC995}
    .fil1 {fill:#BC9E6C}
    .fil3 {fill:#C5A882}
    .fil16 {fill:#DCE9F7}
    .fil4 {fill:#F6D2A2}
    .fil11 {fill:white}
    .fil7 {fill:black;fill-rule:nonzero}
   ]]>
  </style>
 </defs>
 <g id="Слой_x0020_1">
  <metadata id="CorelCorpID_0Corel-Layer"/>
  <g>
   <path class="fil0 str0" d="M246.13 195.28c-22.06,39.92 -64.59,66.96 -113.43,66.96 -44.84,0 -84.36,-22.8 -107.62,-57.43l109.02 -33.89 112.03 24.36z"/>
   <path id="1" class="fil1" d="M246.13 195.28c-22.06,39.92 -64.59,66.96 -113.43,66.96 -44.84,0 -84.36,-22.8 -107.62,-57.43l109.02 -33.89 112.03 24.36z"/>
  </g>
  <path class="fil2" d="M134.55 192.64c26.82,0 48.55,6.31 48.55,14.1 0,3.77 -5.1,7.19 -13.4,9.72 -0.79,6.35 -5.31,11.97 -11.1,11.36 -4.47,-0.46 -7.59,-3.03 -9.19,-7.66 -4.69,0.44 -9.68,0.67 -14.86,0.67 -8.4,0 -16.29,-0.61 -23.18,-1.7 -1.58,1.05 -3.17,1.97 -4.93,2.69 -5.19,2.11 -14.32,3.73 -15.76,-3.6 -0.32,-1.63 -0.22,-3.45 0.4,-5.2 -3.25,-1.89 -5.08,-4.03 -5.08,-6.28 0,-7.79 21.74,-14.1 48.55,-14.1z"/>
  <g>
   <g>
    <path class="fil0 str1" d="M94.88 205.23c4.97,5.03 11.05,8.17 18.14,9.58 -2.74,2.07 -5.28,3.9 -8.29,5.12 -5.19,2.11 -14.32,3.74 -15.76,-3.6 -0.75,-3.79 0.81,-8.69 5.91,-11.1z"/>
    <path id="1" class="fil3" d="M94.88 205.23c4.97,5.03 11.05,8.17 18.14,9.58 -2.74,2.07 -5.28,3.9 -8.29,5.12 -5.19,2.11 -14.32,3.74 -15.76,-3.6 -0.75,-3.79 0.81,-8.69 5.91,-11.1z"/>
   </g>
   <path class="fil4" d="M94.92 205.34c3.78,3.83 8.41,6.22 13.81,7.29 -2.09,1.57 -4.02,2.97 -6.32,3.9 -3.94,1.61 -10.89,2.84 -11.99,-2.74 -0.57,-2.89 0.61,-6.62 4.5,-8.45z"/>
   <g>
    <path class="fil0 str2" d="M95.34 222.26c-1.91,-1.35 -0.66,-5.19 0.59,-6.4"/>
   </g>
   <g>
    <path class="fil0 str3" d="M91.14 221.03c-2.22,-1.57 -0.77,-6.05 0.69,-7.45"/>
   </g>
  </g>
  <g>
   <path class="fil0 str4" d="M239.19 58.94c14.53,20.94 23.05,46.35 23.05,73.76 0,22.38 -5.68,43.44 -15.67,61.81l-108.18 -22.66 -113.89 32.07c-13.48,-20.44 -21.33,-44.91 -21.33,-71.22 0,-36.88 15.41,-70.16 40.15,-93.75l80.63 25.01 14.17 2.54 101.07 -7.56z"/>
   <path id="1" class="fil5" d="M239.19 58.94c14.53,20.94 23.05,46.35 23.05,73.76 0,22.38 -5.68,43.44 -15.67,61.81l-108.18 -22.66 -113.89 32.07c-13.48,-20.44 -21.33,-44.91 -21.33,-71.22 0,-36.88 15.41,-70.16 40.15,-93.75l80.63 25.01 14.17 2.54 101.07 -7.56z"/>
  </g>
  <g>
   <g>
    <path class="fil0 str1" d="M169.68 203.49c-3.55,4.2 -9.04,7.67 -17.38,10.07 0.73,8.18 4.29,12.61 10.31,13.24 9.64,1.01 13.62,-12.83 7.07,-23.31z"/>
    <path id="1" class="fil3" d="M169.68 203.49c-3.55,4.2 -9.04,7.67 -17.38,10.07 0.73,8.18 4.29,12.61 10.31,13.24 9.64,1.01 13.62,-12.83 7.07,-23.31z"/>
   </g>
   <path class="fil4" d="M167 203.49c-3,3.55 -7.65,6.49 -14.7,8.52 0.61,6.92 3.63,10.67 8.72,11.2 8.15,0.85 13.31,-12.87 5.98,-19.72z"/>
   <g>
    <path class="fil0 str5" d="M160.1 226.93c2.2,-0.78 2.05,-4.82 1.17,-6.32"/>
   </g>
   <g>
    <path class="fil0 str6" d="M165.94 227.54c2.57,-0.9 2.39,-5.61 1.36,-7.36"/>
   </g>
  </g>
  <g>
   <g>
    <path class="fil0 str7" d="M5.2 155.69c2.18,0 30.61,-4.33 32.23,-6.72 0.08,-0.12 14.54,0.61 16.21,0.61 6.38,0 28.16,-6.67 30.85,-5.49l2.56 -1.85"/>
   </g>
   <g>
    <path class="fil0 str7" d="M29.87 72.65c8.59,6.72 32.83,5.59 44.24,5.35 3.67,-0.07 8.69,5.07 15.78,4.79 0.56,-0.02 0.62,-0.06 0.57,0.57"/>
   </g>
   <g>
    <path class="fil0 str7" d="M4.59 113.43c24.67,0.44 53.11,-1.3 77.94,-0.85"/>
   </g>
   <g>
    <path class="fil0 str7" d="M188.45 143.79c11.4,0.35 15.04,1.73 26.77,1.28 2.39,-0.09 3.67,4.23 16.32,4.23 10.23,0 20.21,1.39 29.41,1.65"/>
   </g>
   <g>
    <path class="fil0 str7" d="M179.79 170.72c14.72,5.01 56.81,4.2 69.96,11.17 0.19,0.1 1.17,0.5 2.42,0.94"/>
   </g>
   <g>
    <path class="fil0 str7" d="M200.44 115.6c1.92,-4.49 34.84,-0.84 42.61,-0.42 3.17,0.16 12.93,1.71 18.21,1.56"/>
   </g>
   <g>
    <path class="fil0 str7" d="M181.76 83.64c16.08,0 45.15,3.52 59.82,-0.49 0.8,-0.22 5.84,-0.14 10.86,0.06"/>
   </g>
   <g>
    <path class="fil0 str7" d="M17.78 77.44c0.18,0 31.22,3.01 31.3,3.05 3.65,1.57 33.66,2 39.04,4.12"/>
   </g>
   <g>
    <path class="fil0 str7" d="M30.17 116.22c3.68,-0.06 8.2,-2.94 14.5,-0.25 1.57,0.67 21.29,0.93 28.86,0.48m4.54 -0.76c1.78,-1.09 2.69,0.85 4.16,0.19 0.5,-0.22 1.25,-3.12 0.81,-2.27l-0.51 -1.03"/>
   </g>
   <g>
    <path class="fil0 str7" d="M37.48 153.53c13.33,0 18.58,1.3 32.05,-2.75 1.04,-0.31 10.14,-3.2 10.5,-3.17"/>
   </g>
   <g>
    <path class="fil0 str7" d="M196.41 117.17c13.91,0 28.79,1.98 43.12,1.98"/>
   </g>
   <g>
    <path class="fil0 str7" d="M185.14 146.48c10.42,0 12.83,-0.27 22.03,2.46 3.91,1.17 11.1,-1.04 21.86,2.99 1.38,0.52 6.67,0.96 12.19,1.29m9.17 0.43c2.46,0.09 4.36,0.14 5.14,0.14"/>
   </g>
   <g>
    <path class="fil0 str7" d="M178.42 174.12c11.11,-0.17 12.24,3.21 24.55,1.93 12.22,-1.28 20.43,5.44 32.69,5.09 2.67,-0.07 3.52,0.14 5.84,1.41"/>
   </g>
   <g>
    <path class="fil0 str7" d="M212.54 87.17c10.84,-1.29 20.01,3.02 32.84,-0.36 2.8,-0.74 5.9,-0.52 8.26,-0.58"/>
   </g>
  </g>
  <g>
   <g>
    <path class="fil0 str8" d="M216.09 34.16c3.68,3.11 7.17,6.42 10.48,9.91l-41.1 9.72 -72.14 -16.91 13.29 -8.86 57.64 17.14 31.83 -11z"/>
    <path id="1" class="fil2" d="M216.09 34.16c3.68,3.11 7.17,6.42 10.48,9.91l-41.1 9.72 -72.14 -16.91 13.29 -8.86 57.64 17.14 31.83 -11z"/>
   </g>
   <g>
    <path class="fil0 str9" d="M132.92 4.49c8.82,0 17.43,0.91 25.74,2.64l-36.57 24.38c-10.85,7.23 -3.93,6.29 8.83,9.28l53.31 12.5 39.97 -9.45c4.59,4.86 8.8,10.09 12.57,15.63l-102.96 7.34 -89.38 -25.83c22.7,-22.56 53.97,-36.49 88.49,-36.49z"/>
    <path id="1" class="fil6" d="M132.92 4.49c8.82,0 17.43,0.91 25.74,2.64l-36.57 24.38c-10.85,7.23 -3.93,6.29 8.83,9.28l53.31 12.5 39.97 -9.45c4.59,4.86 8.8,10.09 12.57,15.63l-102.96 7.34 -89.38 -25.83c22.7,-22.56 53.97,-36.49 88.49,-36.49z"/>
   </g>
   <g>
    <path class="fil0 str1" d="M167.76 95.61l-12.69 -21.26 23.41 -33.55c3.02,-4.33 1.86,-3.98 6.96,-5.05 4.87,-1.01 3.88,-0.5 7.89,2.74 4.02,3.25 1.93,4.65 -0.64,9.55l-24.93 47.57z"/>
    <path id="1" class="fil1" d="M167.76 95.61l-12.69 -21.26 23.41 -33.55c3.02,-4.33 1.86,-3.98 6.96,-5.05 4.87,-1.01 3.88,-0.5 7.89,2.74 4.02,3.25 1.93,4.65 -0.64,9.55l-24.93 47.57z"/>
   </g>
   <g>
    <line class="fil0 str10" x1="187.2" y1="37.69" x2="159.51" y2= "78.48" />
   </g>
   <g>
    <path class="fil0 str11" d="M182.73 69.02c-7.73,-1.42 -6.68,-7.32 1.1,-8.71l30.7 -6.29 -6.93 13.35 -24.87 1.65z"/>
    <path id="1" class="fil1" d="M182.73 69.02c-7.73,-1.42 -6.68,-7.32 1.1,-8.71l30.7 -6.29 -6.93 13.35 -24.87 1.65z"/>
   </g>
   <g>
    <path class="fil7" d="M166.43 92.99l0.33 4.26 -0.06 0.01 -0.61 0.04 -0.56 0.06 -0.52 0.09 -0.47 0.11 -0.42 0.12 -0.38 0.14 -0.32 0.14 -0.28 0.15 -0.23 0.14 -0.19 0.15 -0.13 0.13 -0.1 0.11 -0.07 0.1 -0.04 0.08 -0.03 0.07 -0.01 0.05 0 0.05 0 0.06 0.01 0.07 0.04 0.1 0.05 0.13 0.09 0.15 0.13 0.17 0.18 0.2 0.22 0.21 0.28 0.22 0.32 0.23 0.39 0.23 0.43 0.23 0.5 0.23 0.55 0.22 0.6 0.21 -1.27 4.07 -0.79 -0.27 -0.75 -0.3 -0.7 -0.32 -0.66 -0.35 -0.61 -0.37 -0.56 -0.39 -0.53 -0.43 -0.47 -0.45 -0.43 -0.47 -0.38 -0.51 -0.32 -0.54 -0.26 -0.57 -0.19 -0.6 -0.11 -0.61 -0.03 -0.63 0.05 -0.63 0.13 -0.61 0.21 -0.58 0.29 -0.55 0.34 -0.51 0.4 -0.47 0.45 -0.42 0.5 -0.38 0.53 -0.35 0.57 -0.3 0.6 -0.26 0.64 -0.24 0.67 -0.19 0.71 -0.16 0.74 -0.13 0.78 -0.09 0.81 -0.05 -0.06 0zm0.06 0c1.17,-0.05 2.18,0.86 2.24,2.04 0.06,1.18 -0.85,2.17 -2.03,2.23l-0.21 -4.27zm30.97 2.07l-30.7 2.19 -0.33 -4.26 30.7 -2.19 2.03 3.18 -1.7 1.08zm-0.33 -4.26c1.18,-0.09 2.21,0.8 2.3,1.98 0.09,1.17 -0.79,2.2 -1.97,2.28l-0.33 -4.26zm-8.64 13.51l6.94 -12.43 3.73 2.1 -6.93 12.43 -2 1.08 -1.74 -3.18zm3.74 2.1c-0.58,1.02 -1.88,1.39 -2.91,0.81 -1.03,-0.58 -1.4,-1.88 -0.83,-2.91l3.74 2.1zm-26.6 -4.86l24.86 1.68 -0.26 4.26 -24.86 -1.68 -0.51 -0.09 0.77 -4.17zm-0.26 4.26c-1.18,-0.08 -2.08,-1.1 -2,-2.27 0.07,-1.18 1.08,-2.07 2.26,-1.99l-0.26 4.26z"/>
    <path id="1" class="fil1" d="M165.5 103.68c-7.73,-2.45 -6.69,-8.21 1.09,-8.56l30.71 -2.19 -6.94 12.43 -24.86 -1.68z"/>
   </g>
   <g>
    <path class="fil0 str8" d="M219.19 36.86c3.63,3.28 7.08,6.77 10.32,10.44l-49.05 115.26 -11.44 -24.07 50.17 -101.63z"/>
    <path id="1" class="fil2" d="M219.19 36.86c3.63,3.28 7.08,6.77 10.32,10.44l-49.05 115.26 -11.44 -24.07 50.17 -101.63z"/>
   </g>
   <g>
    <path class="fil0 str8" d="M218.86 36.56c1.39,1.25 2.74,2.52 4.08,3.83l-48.31 109.9 -5.61 -11.8 49.84 -101.93z"/>
    <path id="1" class="fil1" d="M218.86 36.56c1.39,1.25 2.74,2.52 4.08,3.83l-48.31 109.9 -5.61 -11.8 49.84 -101.93z"/>
   </g>
  </g>
  <g>
   <g>
    <path class="fil0 str12" d="M162.73 68.86c5.1,5.57 7.07,10.94 9.7,16.76 14.16,-5.78 4.22,-30.42 -9.7,-16.76z"/>
    <path id="1" class="fil8" d="M162.73 68.86c5.1,5.57 7.07,10.94 9.7,16.76 14.16,-5.78 4.22,-30.42 -9.7,-16.76z"/>
   </g>
   <path class="fil9" d="M164.98 71.14c4.41,4.81 6.12,9.45 8.39,14.48 12.23,-4.99 3.64,-26.29 -8.39,-14.48z"/>
   <path class="fil10" d="M165.81 72.58c2.19,3.27 3.44,5.26 4.94,8.6 6.88,-3.2 1.79,-15.21 -4.94,-8.6z"/>
  </g>
  <g>
   <g>
    <path class="fil0 str13" d="M120.46 55.9c-8.58,1.89 -15.6,6.93 -20.15,10.66 -8.11,-8.15 -1.69,-17.52 7.02,-20.42 5.91,-1.96 10,2.25 13.13,9.76z"/>
    <path id="1" class="fil8" d="M120.46 55.9c-8.58,1.89 -15.6,6.93 -20.15,10.66 -8.11,-8.15 -1.69,-17.52 7.02,-20.42 5.91,-1.96 10,2.25 13.13,9.76z"/>
   </g>
   <path class="fil9" d="M120.46 55.9c-7.25,1.6 -13.38,5.44 -17.85,8.85 -5.57,-7.06 -0.2,-14.8 6.98,-17.28 2.62,-0.91 4.83,-0.35 6.72,1.32 1.57,1.76 2.93,4.19 4.15,7.11z"/>
   <path class="fil10" d="M115.05 58.27c-4.79,1.05 -8.44,4.27 -12,6.41 -4.53,-4.55 -0.95,-9.78 3.92,-11.4 3.3,-1.1 6.34,0.79 8.08,4.99z"/>
  </g>
  <g>
   <path class="fil0 str1" d="M176.53 157.47c2.68,17.48 3.96,32.1 -5.04,43.88 -9.27,12.14 -27.5,15.26 -42.04,15.16 -25.36,-0.17 -37.21,-8.99 -43.1,-25.78 -7.75,-22.09 -6.21,-57.49 -2.85,-87.61 7.04,-63.02 81.73,-61.51 90.65,-10.53 1.86,10.65 0.09,22.64 -2.2,38.19 -1.49,10.11 3.72,21.09 4.58,26.69z"/>
   <path id="1" class="fil8" d="M176.53 157.47c2.68,17.48 3.96,32.1 -5.04,43.88 -9.27,12.14 -27.5,15.26 -42.04,15.16 -25.36,-0.17 -37.21,-8.99 -43.1,-25.78 -7.75,-22.09 -6.21,-57.49 -2.85,-87.61 7.04,-63.02 81.73,-61.51 90.65,-10.53 1.86,10.65 0.09,22.64 -2.2,38.19 -1.49,10.11 3.72,21.09 4.58,26.69z"/>
  </g>
  <path class="fil9" d="M176.53 157.47c1.21,7.9 2.14,15.22 1.96,21.96 -0.89,5.01 -2.71,9.64 -5.94,13.88 -8.74,11.44 -25.92,14.37 -39.61,14.28 -23.9,-0.16 -35.06,-8.48 -40.61,-24.29 -2.54,-7.24 0.55,-17.19 -1.1,-26.61 -3.02,-17.14 -3.65,-37.43 -1.58,-55.93 3.66,-32.85 26.83,-47.08 48.22,-45.12 17.11,2.8 32.52,15.49 36.28,36.95 1.86,10.65 0.09,22.64 -2.2,38.19 -1.49,10.11 3.72,21.09 4.58,26.69z"/>
  <g>
   <path class="fil0 str14" d="M66.25 243.91c-14.03,-8.41 -26.34,-19.39 -36.27,-32.3l46.43 -17.41 1.91 34.33 -0.39 5.34 -11.68 10.04z"/>
   <path id="1" class="fil2" d="M66.25 243.91c-14.03,-8.41 -26.34,-19.39 -36.27,-32.3l46.43 -17.41 1.91 34.33 -0.39 5.34 -11.68 10.04z"/>
  </g>
  <g>
   <g>
    <path class="fil0 str10" d="M118.79 67.14c2.02,-2.16 4.32,-3.36 6.97,-3.4"/>
   </g>
   <g>
    <path class="fil8" d="M143.9 112.57c-6.48,-7.7 -17.61,-8.95 -26.55,-4.87 -5.85,2.68 -11.41,8.91 -5.74,14.81 2.54,1.76 4.78,1.89 6.86,1.1 3.93,-1.48 5.65,-3.89 10.87,-3.48 5.98,0.46 6.2,3.89 9.34,6.86 2.24,2.12 4.87,1.78 6.69,0.01 4.31,-4.16 1.81,-10.53 -1.47,-14.43z"/>
    <path class="fil8" d="M127.17 117.7c-3.16,-1.4 -6.33,-0.9 -9.49,1.69 -0.58,2.85 -0.64,5.58 -0.1,8.17 0.58,2.75 2.62,6.03 5.47,6.45 5.12,0.76 4.24,-6.08 3.8,-8.85 -0.35,-2.16 -0.19,-4.66 0.32,-7.46z"/>
    <path class="fil8" d="M134.84 119.48c-2.82,-1.25 -5.65,-0.8 -8.47,1.52 -0.53,2.55 -0.58,4.99 -0.1,7.3 0.52,2.46 2.34,5.39 4.9,5.77 4.57,0.67 3.79,-5.44 3.39,-7.92 -0.31,-1.93 -0.17,-4.16 0.28,-6.67z"/>
   </g>
   <ellipse class="fil8" cx="145.49" cy="96.72" rx="13.9" ry="15.14"/>
   <ellipse class="fil8" cx="115.19" cy="89.1" rx="15.47" ry="16.84"/>
   <g>
    <path class="fil7" d="M159.32 93.63l-3.98 0 0 0 -0.01 -0.53 -0.04 -0.52 -0.06 -0.52 -0.08 -0.5 -0.11 -0.5 -0.13 -0.48 -0.14 -0.48 -0.17 -0.46 -0.19 -0.45 -0.21 -0.44 -0.22 -0.43 -0.24 -0.41 -0.26 -0.4 -0.28 -0.38 -0.29 -0.37 -0.31 -0.35 -0.32 -0.33 -0.33 -0.32 -0.35 -0.29 -0.36 -0.28 -0.37 -0.26 -0.38 -0.24 -0.39 -0.22 -0.4 -0.19 -0.41 -0.18 -0.42 -0.15 -0.43 -0.13 -0.43 -0.11 -0.44 -0.09 -0.45 -0.06 -0.46 -0.04 -0.46 -0.01 0 -3.99 0.68 0.02 0.67 0.05 0.67 0.09 0.65 0.13 0.65 0.16 0.63 0.2 0.61 0.22 0.6 0.26 0.59 0.29 0.57 0.32 0.55 0.34 0.53 0.37 0.51 0.4 0.5 0.42 0.47 0.45 0.45 0.47 0.44 0.49 0.4 0.52 0.39 0.53 0.36 0.55 0.34 0.57 0.31 0.59 0.28 0.61 0.26 0.62 0.23 0.64 0.2 0.65 0.18 0.66 0.14 0.68 0.11 0.69 0.09 0.7 0.04 0.71 0.02 0.71 0 0zm-13.12 14.12l0 -3.99 0 0 0.46 -0.01 0.46 -0.04 0.45 -0.06 0.44 -0.09 0.43 -0.11 0.43 -0.13 0.42 -0.16 0.41 -0.17 0.4 -0.2 0.39 -0.22 0.38 -0.24 0.37 -0.25 0.36 -0.28 0.35 -0.3 0.33 -0.31 0.32 -0.34 0.31 -0.35 0.29 -0.36 0.28 -0.39 0.26 -0.39 0.24 -0.42 0.22 -0.42 0.21 -0.44 0.19 -0.45 0.17 -0.47 0.14 -0.47 0.13 -0.49 0.11 -0.49 0.08 -0.51 0.06 -0.51 0.04 -0.53 0.01 -0.53 3.98 0 -0.02 0.72 -0.04 0.71 -0.09 0.7 -0.11 0.68 -0.14 0.68 -0.18 0.67 -0.2 0.65 -0.23 0.63 -0.26 0.63 -0.28 0.6 -0.31 0.59 -0.34 0.57 -0.36 0.56 -0.39 0.53 -0.4 0.51 -0.44 0.49 -0.45 0.47 -0.47 0.45 -0.5 0.42 -0.51 0.4 -0.53 0.37 -0.55 0.35 -0.57 0.32 -0.59 0.28 -0.6 0.26 -0.61 0.23 -0.63 0.19 -0.65 0.16 -0.65 0.13 -0.67 0.09 -0.67 0.06 -0.68 0.02 0 0zm-13.13 -14.12l3.99 0 0 0 0.01 0.53 0.04 0.53 0.06 0.51 0.08 0.51 0.1 0.49 0.13 0.49 0.15 0.47 0.17 0.47 0.18 0.45 0.21 0.44 0.22 0.42 0.25 0.42 0.26 0.39 0.27 0.39 0.29 0.36 0.31 0.35 0.32 0.34 0.34 0.31 0.34 0.3 0.36 0.28 0.37 0.25 0.38 0.24 0.4 0.22 0.4 0.2 0.41 0.17 0.41 0.16 0.43 0.13 0.44 0.11 0.44 0.09 0.45 0.06 0.45 0.04 0.47 0.01 0 3.99 -0.68 -0.02 -0.68 -0.06 -0.66 -0.09 -0.66 -0.13 -0.64 -0.16 -0.63 -0.19 -0.62 -0.23 -0.6 -0.26 -0.58 -0.28 -0.57 -0.32 -0.55 -0.35 -0.54 -0.37 -0.51 -0.4 -0.49 -0.42 -0.48 -0.45 -0.45 -0.47 -0.43 -0.49 -0.41 -0.51 -0.38 -0.53 -0.37 -0.56 -0.33 -0.57 -0.31 -0.59 -0.29 -0.6 -0.26 -0.63 -0.23 -0.63 -0.2 -0.65 -0.17 -0.67 -0.15 -0.68 -0.11 -0.68 -0.08 -0.7 -0.05 -0.71 -0.02 -0.72 0 0zm13.13 -14.11l0 3.99 0 0 -0.47 0.01 -0.45 0.04 -0.45 0.06 -0.44 0.09 -0.44 0.11 -0.43 0.13 -0.41 0.15 -0.41 0.18 -0.41 0.19 -0.39 0.22 -0.38 0.24 -0.37 0.26 -0.36 0.28 -0.34 0.29 -0.34 0.32 -0.32 0.33 -0.31 0.35 -0.29 0.37 -0.27 0.38 -0.26 0.4 -0.25 0.41 -0.22 0.43 -0.21 0.44 -0.18 0.45 -0.17 0.46 -0.15 0.48 -0.13 0.48 -0.1 0.5 -0.08 0.5 -0.06 0.52 -0.04 0.52 -0.01 0.53 -3.99 0 0.02 -0.71 0.05 -0.71 0.08 -0.7 0.11 -0.69 0.15 -0.68 0.17 -0.66 0.2 -0.65 0.23 -0.64 0.26 -0.62 0.29 -0.61 0.31 -0.59 0.33 -0.57 0.37 -0.55 0.38 -0.53 0.41 -0.52 0.43 -0.49 0.45 -0.47 0.48 -0.45 0.49 -0.42 0.51 -0.4 0.54 -0.37 0.55 -0.34 0.57 -0.32 0.58 -0.29 0.6 -0.26 0.62 -0.22 0.63 -0.2 0.64 -0.16 0.66 -0.13 0.66 -0.09 0.68 -0.05 0.68 -0.02 0 0z"/>
    <path id="1" class="fil11" d="M146.2 81.51c6.15,0 11.13,5.43 11.13,12.12 0,6.7 -4.98,12.12 -11.13,12.12 -6.15,0 -11.14,-5.42 -11.14,-12.12 0,-6.69 4.99,-12.12 11.14,-12.12z"/>
   </g>
   <g>
    <path class="fil0 str15" d="M152.86 77.63c-0.33,-1.91 -1.32,-3.24 -2.64,-4.03"/>
   </g>
   <g>
    <path class="fil7" d="M131.39 88.28l-4.13 0 0 0 -0.02 -0.62 -0.04 -0.62 -0.07 -0.61 -0.1 -0.59 -0.12 -0.59 -0.15 -0.57 -0.18 -0.56 -0.2 -0.55 -0.22 -0.53 -0.24 -0.52 -0.27 -0.5 -0.28 -0.49 -0.31 -0.47 -0.32 -0.45 -0.35 -0.43 -0.36 -0.41 -0.38 -0.4 -0.4 -0.37 -0.41 -0.35 -0.42 -0.33 -0.44 -0.31 -0.45 -0.28 -0.46 -0.26 -0.48 -0.23 -0.48 -0.21 -0.5 -0.18 -0.51 -0.16 -0.51 -0.13 -0.53 -0.1 -0.53 -0.07 -0.54 -0.05 -0.55 -0.01 0 -4.15 0.78 0.02 0.76 0.07 0.76 0.1 0.75 0.15 0.73 0.18 0.71 0.22 0.71 0.26 0.68 0.29 0.67 0.33 0.64 0.36 0.63 0.4 0.61 0.42 0.58 0.45 0.57 0.48 0.54 0.51 0.51 0.54 0.5 0.56 0.46 0.59 0.44 0.6 0.41 0.64 0.39 0.65 0.35 0.67 0.33 0.69 0.29 0.71 0.26 0.73 0.24 0.74 0.19 0.76 0.17 0.77 0.13 0.79 0.09 0.8 0.06 0.8 0.01 0.82 0 0zm-14.95 16.1l0 -4.14 0 0 0.55 -0.02 0.54 -0.04 0.53 -0.07 0.53 -0.11 0.51 -0.13 0.51 -0.15 0.5 -0.19 0.48 -0.2 0.48 -0.24 0.46 -0.26 0.45 -0.28 0.44 -0.3 0.42 -0.33 0.41 -0.35 0.4 -0.38 0.38 -0.39 0.36 -0.41 0.35 -0.44 0.32 -0.45 0.31 -0.47 0.28 -0.48 0.27 -0.51 0.24 -0.51 0.22 -0.54 0.2 -0.54 0.18 -0.57 0.15 -0.57 0.12 -0.58 0.1 -0.6 0.07 -0.61 0.04 -0.61 0.02 -0.63 4.13 0 -0.01 0.82 -0.06 0.81 -0.09 0.8 -0.13 0.78 -0.17 0.78 -0.19 0.75 -0.24 0.75 -0.26 0.72 -0.29 0.71 -0.33 0.7 -0.35 0.67 -0.39 0.65 -0.41 0.63 -0.44 0.61 -0.46 0.59 -0.5 0.56 -0.51 0.53 -0.54 0.51 -0.57 0.48 -0.58 0.46 -0.61 0.42 -0.63 0.39 -0.64 0.36 -0.67 0.33 -0.68 0.3 -0.71 0.25 -0.71 0.23 -0.73 0.18 -0.75 0.14 -0.76 0.11 -0.76 0.06 -0.78 0.02 0 0zm-14.95 -16.1l4.13 0 0 0 0.02 0.63 0.04 0.61 0.07 0.61 0.1 0.6 0.12 0.58 0.15 0.57 0.18 0.57 0.2 0.54 0.22 0.54 0.24 0.51 0.27 0.51 0.28 0.48 0.31 0.47 0.33 0.45 0.34 0.44 0.36 0.41 0.38 0.39 0.4 0.38 0.41 0.35 0.42 0.33 0.44 0.3 0.45 0.28 0.46 0.26 0.48 0.24 0.48 0.2 0.5 0.19 0.51 0.15 0.51 0.13 0.53 0.11 0.53 0.07 0.54 0.04 0.55 0.02 0 4.14 -0.78 -0.02 -0.76 -0.06 -0.76 -0.11 -0.75 -0.14 -0.73 -0.18 -0.71 -0.23 -0.71 -0.25 -0.68 -0.3 -0.67 -0.33 -0.64 -0.36 -0.63 -0.39 -0.61 -0.42 -0.58 -0.46 -0.57 -0.48 -0.54 -0.51 -0.51 -0.53 -0.49 -0.56 -0.47 -0.59 -0.44 -0.61 -0.41 -0.63 -0.39 -0.65 -0.35 -0.67 -0.33 -0.7 -0.29 -0.71 -0.26 -0.72 -0.23 -0.75 -0.2 -0.75 -0.17 -0.78 -0.13 -0.78 -0.09 -0.8 -0.06 -0.81 -0.01 -0.82 0 0zm14.95 -16.1l0 4.15 0 0 -0.55 0.01 -0.54 0.05 -0.53 0.07 -0.53 0.1 -0.51 0.13 -0.51 0.16 -0.5 0.18 -0.48 0.21 -0.48 0.23 -0.46 0.26 -0.45 0.28 -0.44 0.31 -0.42 0.33 -0.41 0.35 -0.4 0.37 -0.38 0.4 -0.36 0.41 -0.34 0.43 -0.33 0.45 -0.31 0.47 -0.28 0.49 -0.27 0.5 -0.24 0.52 -0.22 0.53 -0.2 0.55 -0.18 0.56 -0.15 0.57 -0.12 0.59 -0.1 0.59 -0.07 0.61 -0.04 0.62 -0.02 0.62 -4.13 0 0.01 -0.82 0.06 -0.8 0.09 -0.8 0.13 -0.79 0.17 -0.77 0.2 -0.76 0.23 -0.74 0.26 -0.73 0.29 -0.71 0.33 -0.69 0.35 -0.67 0.39 -0.65 0.41 -0.64 0.44 -0.6 0.47 -0.59 0.49 -0.56 0.51 -0.54 0.54 -0.51 0.57 -0.48 0.58 -0.45 0.61 -0.42 0.63 -0.4 0.64 -0.36 0.67 -0.33 0.68 -0.29 0.71 -0.26 0.71 -0.22 0.73 -0.18 0.75 -0.15 0.76 -0.1 0.76 -0.07 0.78 -0.02 0 0z"/>
    <path id="1" class="fil11" d="M116.44 74.25c7.12,0 12.89,6.29 12.89,14.03 0,7.75 -5.77,14.03 -12.89,14.03 -7.12,0 -12.88,-6.28 -12.88,-14.03 0,-7.74 5.76,-14.03 12.88,-14.03z"/>
   </g>
   <g>
    <path class="fil0 str16" d="M126.54 118.26c-2.21,-0.98 -4.42,-0.63 -6.63,1.18 -0.41,2 -0.45,3.9 -0.07,5.71 0.4,1.92 1.83,4.21 3.82,4.51 3.58,0.52 2.97,-4.25 2.65,-6.19 -0.24,-1.51 -0.12,-3.25 0.23,-5.21z"/>
    <path id="1" class="fil11" d="M126.54 118.26c-2.21,-0.98 -4.42,-0.63 -6.63,1.18 -0.41,2 -0.45,3.9 -0.07,5.71 0.4,1.92 1.83,4.21 3.82,4.51 3.58,0.52 2.97,-4.25 2.65,-6.19 -0.24,-1.51 -0.12,-3.25 0.23,-5.21z"/>
   </g>
   <g>
    <path class="fil0 str17" d="M135.06 118.3c-2.2,-0.97 -4.41,-0.62 -6.62,1.19 -0.41,1.99 -0.45,3.9 -0.07,5.7 0.4,1.93 1.82,4.22 3.82,4.51 3.58,0.53 2.96,-4.24 2.65,-6.19 -0.24,-1.5 -0.13,-3.25 0.22,-5.21z"/>
    <path id="1" class="fil11" d="M135.06 118.3c-2.2,-0.97 -4.41,-0.62 -6.62,1.19 -0.41,1.99 -0.45,3.9 -0.07,5.7 0.4,1.93 1.82,4.22 3.82,4.51 3.58,0.53 2.96,-4.24 2.65,-6.19 -0.24,-1.5 -0.13,-3.25 0.22,-5.21z"/>
   </g>
   <ellipse class="fil10" cx="140.77" cy="96.87" rx="3.45" ry="3.75"/>
   <g>
    <path class="fil7" d="M144.1 96.4l-2.13 0 0 0 0 -0.01 0 -0.01 0 -0.01 0 -0.01 -0.01 0 0 -0.01 0 0 0 -0.01 0 0 0 -0.01 -0.01 0 0 -0.01 0 0 0 0 0 0 0 0 -0.01 0 0 0 0 0 0 0 0.01 0 0 0 0 0 0 0 0.01 0 0 0 0.01 0.01 0 0 0.01 0 0 0 0.01 0 0 0 0 -2.13 0.11 0 0.12 0.01 0.1 0.01 0.11 0.02 0.11 0.03 0.11 0.03 0.09 0.04 0.1 0.04 0.1 0.05 0.09 0.05 0.09 0.06 0.09 0.06 0.08 0.06 0.08 0.07 0.07 0.07 0.07 0.07 0.07 0.08 0.06 0.08 0.06 0.08 0.06 0.09 0.05 0.09 0.05 0.09 0.04 0.09 0.05 0.1 0.03 0.1 0.03 0.09 0.03 0.11 0.02 0.1 0.02 0.1 0.01 0.11 0.01 0.11 0 0.11 0 0zm-2.11 2.2l0 -2.14 0 0 0 0 -0.01 0 0 0 -0.01 0.01 0 0 -0.01 0 0 0 -0.01 0 0 0 0 0.01 0 0 -0.01 0 0 0 0 0 0 0 0.01 -0.01 0 0 0 0 0 0 0 0 0 -0.01 0.01 0 0 0 0 -0.01 0 0 0 -0.01 0 0 0.01 -0.01 0 -0.01 0 -0.01 0 0 0 -0.01 2.13 0 0 0.1 -0.01 0.11 -0.01 0.11 -0.02 0.1 -0.02 0.1 -0.03 0.11 -0.03 0.1 -0.03 0.09 -0.05 0.1 -0.04 0.1 -0.05 0.09 -0.05 0.08 -0.05 0.09 -0.06 0.08 -0.07 0.08 -0.07 0.08 -0.07 0.07 -0.07 0.08 -0.08 0.06 -0.08 0.07 -0.09 0.06 -0.09 0.05 -0.09 0.05 -0.1 0.05 -0.1 0.04 -0.1 0.04 -0.1 0.03 -0.11 0.03 -0.11 0.02 -0.1 0.02 -0.12 0 -0.11 0.01 0 0zm-2.1 -2.2l2.13 0 0 0 0 0.01 0 0 0 0.01 0 0.01 0 0.01 0 0 0 0.01 0.01 0 0 0.01 0 0 0 0 0 0.01 0.01 0 0 0 0 0.01 0 -0.01 0 0.01 0 0 0 0 0 0 0 0 0 0 -0.01 -0.01 0 0 0 0 -0.01 0 0 0 -0.01 0 0 -0.01 -0.01 0 0 0 -0.01 0 0 2.14 -0.11 -0.01 -0.11 0 -0.11 -0.02 -0.11 -0.02 -0.11 -0.03 -0.1 -0.03 -0.1 -0.04 -0.1 -0.04 -0.09 -0.05 -0.1 -0.05 -0.08 -0.05 -0.09 -0.06 -0.08 -0.07 -0.08 -0.06 -0.08 -0.07 -0.07 -0.08 -0.07 -0.08 -0.06 -0.08 -0.06 -0.08 -0.06 -0.09 -0.05 -0.08 -0.05 -0.09 -0.04 -0.1 -0.04 -0.1 -0.04 -0.09 -0.03 -0.1 -0.02 -0.11 -0.02 -0.1 -0.02 -0.1 -0.01 -0.11 -0.01 -0.11 0 -0.1 0 0zm2.1 -2.2l0 2.13 0 0 0.01 0 0 0 0.01 0 0 0 0.01 0 0.01 -0.01 0 0 0 0 0 0 0.01 0 0 0 0 0 0 0 0 0 0 0 0 0 0 0 0 0 -0.01 0 0 0 0 0.01 0 0 0 0.01 0 0 -0.01 0.01 0 0 0 0.01 0 0 0 0.01 0 0.01 0 0.01 0 0.01 -2.13 0 0 -0.11 0.01 -0.11 0.01 -0.11 0.02 -0.1 0.02 -0.1 0.02 -0.11 0.03 -0.09 0.04 -0.1 0.04 -0.1 0.04 -0.09 0.05 -0.09 0.05 -0.09 0.06 -0.09 0.06 -0.08 0.06 -0.08 0.07 -0.08 0.07 -0.07 0.08 -0.07 0.08 -0.07 0.08 -0.06 0.09 -0.06 0.08 -0.06 0.1 -0.05 0.09 -0.05 0.1 -0.04 0.1 -0.04 0.1 -0.03 0.11 -0.03 0.11 -0.02 0.11 -0.01 0.11 -0.01 0.11 0 0 0z"/>
    <path id="1" class="fil11" d="M141.99 95.26c0.58,0 1.04,0.51 1.04,1.14 0,0.62 -0.46,1.13 -1.04,1.13 -0.57,0 -1.04,-0.51 -1.04,-1.13 0,-0.63 0.47,-1.14 1.04,-1.14z"/>
   </g>
   <g>
    <path class="fil0 str10" d="M104.75 107.31c8.55,10.74 37.31,15.85 49.37,6.16"/>
   </g>
   <g>
    <path class="fil0 str1" d="M142.28 110.56c-5.81,-6.91 -15.81,-8.04 -23.83,-4.37 -5.26,2.4 -10.25,8 -5.16,13.3 2.28,1.58 4.3,1.69 6.16,0.98 3.53,-1.33 5.07,-3.49 9.76,-3.12 5.37,0.41 5.57,3.49 8.39,6.15 2.01,1.91 4.37,1.6 6.01,0.02 3.86,-3.74 1.62,-9.46 -1.33,-12.96z"/>
    <path id="1" class="fil3" d="M142.28 110.56c-5.81,-6.91 -15.81,-8.04 -23.83,-4.37 -5.26,2.4 -10.25,8 -5.16,13.3 2.28,1.58 4.3,1.69 6.16,0.98 3.53,-1.33 5.07,-3.49 9.76,-3.12 5.37,0.41 5.57,3.49 8.39,6.15 2.01,1.91 4.37,1.6 6.01,0.02 3.86,-3.74 1.62,-9.46 -1.33,-12.96z"/>
   </g>
   <path class="fil4" d="M141.3 110.01c-5.82,-6.91 -14.83,-7.49 -22.85,-3.82 -3.7,1.69 -7.79,6.05 -3.81,10.19 2.28,1.58 2.69,1.35 4.55,0.65 3.53,-1.34 3.98,-2.03 8.67,-1.67 5.36,0.42 8.07,2.24 9.48,4.7 2.24,3.9 11.54,-1.05 3.96,-10.05z"/>
   <ellipse class="fil10" cx="122.03" cy="95.46" rx="3.45" ry="3.75"/>
   <ellipse class="fil11" cx="123.25" cy="94.99" rx="1.04" ry="1.13"/>
   <g>
    <path class="fil0 str18" d="M129.89 102.3c4.06,0 7.36,2.22 7.36,4.96 0,2.75 -3.3,4.97 -7.36,4.97 -4.07,0 -7.37,-2.22 -7.37,-4.97 0,-2.74 3.3,-4.96 7.37,-4.96z"/>
    <path id="1" class="fil12" d="M129.89 102.3c4.06,0 7.36,2.22 7.36,4.96 0,2.75 -3.3,4.97 -7.36,4.97 -4.07,0 -7.37,-2.22 -7.37,-4.97 0,-2.74 3.3,-4.96 7.37,-4.96z"/>
   </g>
   <ellipse class="fil11" cx="127.89" cy="105.92" rx="3.87" ry="2.61"/>
  </g>
  <g>
   <path class="fil7" d="M45.53 190.79l-3.58 2.32 0 0 -0.13 -0.18 -0.13 -0.16 -0.14 -0.16 -0.15 -0.14 -0.17 -0.14 -0.17 -0.13 -0.19 -0.12 -0.19 -0.11 -0.21 -0.11 -0.22 -0.09 -0.23 -0.09 -0.24 -0.07 -0.25 -0.06 -0.27 -0.06 -0.27 -0.04 -0.28 -0.03 -0.29 -0.01 -0.29 -0.01 -0.3 0.01 -0.31 0.03 -0.32 0.04 -0.31 0.05 -0.33 0.06 -0.32 0.08 -0.33 0.1 -0.32 0.11 -0.33 0.12 -0.33 0.14 -0.33 0.15 -0.33 0.17 -0.32 0.19 -0.32 0.2 -2.32 -3.57 0.46 -0.29 0.47 -0.27 0.47 -0.25 0.48 -0.22 0.49 -0.21 0.48 -0.18 0.49 -0.16 0.49 -0.14 0.49 -0.13 0.5 -0.1 0.49 -0.08 0.49 -0.05 0.49 -0.04 0.49 -0.02 0.48 0.01 0.49 0.02 0.47 0.05 0.48 0.07 0.47 0.1 0.46 0.11 0.45 0.14 0.45 0.17 0.43 0.18 0.43 0.22 0.41 0.23 0.4 0.26 0.38 0.29 0.37 0.31 0.35 0.34 0.33 0.36 0.3 0.38 0.29 0.41 0 0zm-4.41 13.6l-2.32 -3.58 0 0 0.32 -0.21 0.3 -0.22 0.28 -0.23 0.28 -0.23 0.26 -0.25 0.25 -0.25 0.23 -0.25 0.22 -0.26 0.2 -0.27 0.19 -0.26 0.18 -0.27 0.16 -0.27 0.15 -0.28 0.13 -0.27 0.12 -0.27 0.1 -0.27 0.09 -0.27 0.07 -0.26 0.06 -0.26 0.05 -0.26 0.03 -0.25 0.01 -0.24 0.01 -0.24 -0.01 -0.23 -0.03 -0.23 -0.03 -0.22 -0.05 -0.21 -0.06 -0.21 -0.07 -0.19 -0.09 -0.2 -0.09 -0.19 -0.11 -0.18 3.58 -2.32 0.25 0.42 0.23 0.43 0.19 0.45 0.17 0.46 0.13 0.46 0.11 0.46 0.07 0.48 0.05 0.47 0.02 0.48 0 0.47 -0.04 0.47 -0.05 0.47 -0.08 0.47 -0.11 0.47 -0.13 0.46 -0.15 0.46 -0.17 0.45 -0.19 0.44 -0.21 0.44 -0.24 0.44 -0.25 0.42 -0.28 0.42 -0.29 0.41 -0.31 0.4 -0.33 0.39 -0.35 0.38 -0.36 0.37 -0.38 0.35 -0.41 0.35 -0.41 0.33 -0.44 0.32 -0.45 0.31 0 0zm-14.22 -1.51l3.58 -2.33 0 0 0.13 0.18 0.13 0.16 0.14 0.16 0.15 0.15 0.17 0.13 0.17 0.13 0.19 0.13 0.19 0.11 0.21 0.1 0.22 0.1 0.23 0.08 0.24 0.07 0.25 0.07 0.27 0.05 0.27 0.04 0.28 0.03 0.29 0.02 0.29 0 0.3 -0.01 0.31 -0.02 0.32 -0.04 0.31 -0.05 0.33 -0.07 0.32 -0.08 0.33 -0.09 0.32 -0.11 0.33 -0.13 0.33 -0.14 0.33 -0.15 0.33 -0.17 0.32 -0.18 0.32 -0.21 2.32 3.58 -0.46 0.29 -0.47 0.26 -0.47 0.25 -0.48 0.22 -0.49 0.21 -0.48 0.18 -0.49 0.17 -0.49 0.14 -0.49 0.12 -0.5 0.1 -0.49 0.08 -0.49 0.06 -0.49 0.04 -0.49 0.01 -0.48 0 -0.49 -0.03 -0.47 -0.05 -0.48 -0.07 -0.47 -0.09 -0.46 -0.12 -0.45 -0.14 -0.45 -0.16 -0.43 -0.19 -0.43 -0.21 -0.41 -0.24 -0.4 -0.26 -0.38 -0.29 -0.37 -0.31 -0.35 -0.33 -0.33 -0.36 -0.3 -0.39 -0.29 -0.4 0 0zm4.41 -13.6l2.32 3.57 0 0 -0.32 0.21 -0.3 0.22 -0.28 0.23 -0.28 0.24 -0.26 0.24 -0.25 0.25 -0.23 0.26 -0.22 0.26 -0.2 0.26 -0.19 0.27 -0.18 0.27 -0.16 0.27 -0.15 0.27 -0.13 0.27 -0.12 0.27 -0.1 0.27 -0.09 0.27 -0.07 0.26 -0.06 0.27 -0.05 0.25 -0.03 0.25 -0.01 0.25 -0.01 0.24 0.01 0.23 0.03 0.22 0.03 0.22 0.05 0.21 0.06 0.21 0.07 0.2 0.09 0.19 0.09 0.19 0.11 0.18 -3.58 2.33 -0.25 -0.42 -0.23 -0.44 -0.19 -0.45 -0.17 -0.45 -0.13 -0.46 -0.11 -0.47 -0.07 -0.47 -0.05 -0.48 -0.02 -0.47 0 -0.47 0.04 -0.48 0.05 -0.47 0.08 -0.47 0.11 -0.46 0.13 -0.46 0.15 -0.46 0.17 -0.45 0.19 -0.45 0.21 -0.44 0.24 -0.43 0.25 -0.43 0.28 -0.41 0.29 -0.41 0.31 -0.4 0.33 -0.39 0.35 -0.38 0.36 -0.37 0.38 -0.36 0.41 -0.35 0.41 -0.33 0.44 -0.32 0.45 -0.3 0 0z"/>
   <path id="1" class="fil1" d="M32.47 191.06c4.15,-2.7 9.2,-2.3 11.27,0.89 2.07,3.18 0.38,7.95 -3.78,10.65 -4.15,2.7 -9.2,2.3 -11.27,-0.88 -2.07,-3.19 -0.38,-7.96 3.78,-10.66z"/>
  </g>
  <g>
   <path class="fil0 str19" d="M18.68 194.21c-2.46,-4.54 -4.65,-9.24 -6.56,-14.09 3.16,-0.93 7.33,-0.7 11.14,0.84 5.89,2.39 8.65,7.02 6.16,10.35 -1.87,2.51 -6.2,3.56 -10.74,2.9z"/>
   <path id="1" class="fil2" d="M18.68 194.21c-2.46,-4.54 -4.65,-9.24 -6.56,-14.09 3.16,-0.93 7.33,-0.7 11.14,0.84 5.89,2.39 8.65,7.02 6.16,10.35 -1.87,2.51 -6.2,3.56 -10.74,2.9z"/>
  </g>
  <g>
   <path class="fil7" d="M54.6 193.97l-3.74 -2.06 0 0 0.03 -0.05 0.02 -0.06 0.02 -0.05 0.01 -0.06 0.02 -0.06 0.01 -0.06 0 -0.07 0 -0.07 0 -0.08 0 -0.08 -0.02 -0.09 -0.01 -0.09 -0.03 -0.09 -0.03 -0.1 -0.04 -0.1 -0.04 -0.11 -0.05 -0.11 -0.06 -0.11 -0.06 -0.11 -0.07 -0.11 -0.08 -0.11 -0.09 -0.12 -0.09 -0.11 -0.1 -0.11 -0.11 -0.11 -0.11 -0.11 -0.12 -0.1 -0.13 -0.11 -0.13 -0.1 -0.14 -0.09 -0.15 -0.09 -0.15 -0.09 2.05 -3.73 0.3 0.17 0.28 0.18 0.28 0.19 0.27 0.2 0.26 0.2 0.24 0.22 0.24 0.22 0.23 0.24 0.21 0.23 0.21 0.25 0.19 0.25 0.18 0.26 0.17 0.27 0.16 0.27 0.15 0.28 0.13 0.28 0.12 0.29 0.1 0.3 0.1 0.3 0.07 0.31 0.06 0.3 0.05 0.32 0.02 0.31 0.01 0.32 -0.01 0.33 -0.02 0.32 -0.05 0.32 -0.07 0.32 -0.09 0.32 -0.11 0.32 -0.13 0.31 -0.16 0.3 0 0zm-9.16 1.79l2.05 -3.73 0 0 0.16 0.08 0.15 0.07 0.16 0.07 0.15 0.06 0.16 0.05 0.15 0.05 0.15 0.04 0.15 0.03 0.15 0.02 0.15 0.02 0.14 0.02 0.14 0 0.13 0 0.13 0 0.12 -0.01 0.12 -0.02 0.11 -0.02 0.11 -0.02 0.1 -0.03 0.09 -0.03 0.09 -0.03 0.08 -0.04 0.07 -0.04 0.07 -0.04 0.06 -0.04 0.05 -0.04 0.05 -0.04 0.04 -0.04 0.04 -0.05 0.04 -0.04 0.03 -0.05 0.03 -0.05 3.74 2.06 -0.17 0.29 -0.19 0.28 -0.21 0.26 -0.22 0.24 -0.23 0.23 -0.25 0.22 -0.26 0.19 -0.26 0.19 -0.28 0.16 -0.28 0.14 -0.29 0.14 -0.29 0.11 -0.3 0.1 -0.3 0.08 -0.31 0.07 -0.31 0.06 -0.31 0.04 -0.31 0.02 -0.32 0.01 -0.31 0 -0.32 -0.01 -0.32 -0.03 -0.31 -0.04 -0.32 -0.05 -0.32 -0.07 -0.31 -0.08 -0.32 -0.09 -0.31 -0.11 -0.31 -0.12 -0.31 -0.13 -0.31 -0.15 -0.3 -0.16 0 0zm-3.39 -8.7l3.74 2.06 0 0 -0.03 0.05 -0.02 0.05 -0.02 0.06 -0.02 0.06 -0.01 0.05 -0.01 0.07 0 0.07 -0.01 0.07 0.01 0.08 0 0.08 0.01 0.08 0.02 0.1 0.03 0.09 0.03 0.1 0.03 0.1 0.05 0.11 0.05 0.11 0.05 0.11 0.07 0.11 0.07 0.11 0.08 0.11 0.09 0.12 0.09 0.11 0.1 0.11 0.11 0.11 0.11 0.11 0.12 0.1 0.13 0.1 0.13 0.1 0.14 0.1 0.15 0.09 0.15 0.09 -2.05 3.73 -0.3 -0.17 -0.29 -0.18 -0.27 -0.19 -0.27 -0.2 -0.26 -0.21 -0.25 -0.21 -0.23 -0.23 -0.23 -0.23 -0.22 -0.24 -0.2 -0.24 -0.19 -0.26 -0.19 -0.26 -0.17 -0.26 -0.15 -0.27 -0.15 -0.28 -0.13 -0.29 -0.12 -0.29 -0.11 -0.29 -0.09 -0.3 -0.07 -0.31 -0.06 -0.31 -0.05 -0.31 -0.03 -0.32 0 -0.32 0 -0.32 0.03 -0.32 0.05 -0.32 0.07 -0.32 0.09 -0.32 0.11 -0.32 0.13 -0.31 0.16 -0.3 0 0zm9.16 -1.79l-2.05 3.73 0 0 -0.16 -0.08 -0.16 -0.08 -0.15 -0.06 -0.16 -0.06 -0.15 -0.06 -0.15 -0.04 -0.16 -0.04 -0.15 -0.03 -0.14 -0.03 -0.15 -0.02 -0.14 -0.01 -0.14 0 -0.13 0 -0.13 0 -0.12 0.01 -0.12 0.02 -0.11 0.02 -0.11 0.02 -0.1 0.03 -0.09 0.03 -0.09 0.03 -0.08 0.04 -0.07 0.04 -0.07 0.04 -0.06 0.03 -0.05 0.05 -0.05 0.04 -0.04 0.04 -0.04 0.05 -0.04 0.04 -0.03 0.05 -0.03 0.05 -3.74 -2.06 0.17 -0.29 0.19 -0.28 0.21 -0.26 0.22 -0.25 0.23 -0.23 0.25 -0.21 0.25 -0.2 0.27 -0.18 0.28 -0.16 0.28 -0.15 0.29 -0.13 0.29 -0.11 0.3 -0.1 0.3 -0.08 0.31 -0.07 0.31 -0.06 0.31 -0.04 0.31 -0.02 0.31 -0.02 0.32 0 0.32 0.02 0.32 0.03 0.31 0.04 0.32 0.05 0.32 0.07 0.31 0.08 0.32 0.09 0.31 0.11 0.31 0.12 0.31 0.13 0.31 0.15 0.3 0.16 0 0z"/>
   <path id="1" class="fil1" d="M50.18 187.13c2.44,1.34 3.58,3.94 2.55,5.81 -1.03,1.87 -3.83,2.29 -6.27,0.96 -2.43,-1.34 -3.57,-3.94 -2.54,-5.81 1.02,-1.87 3.83,-2.3 6.26,-0.96z"/>
  </g>
  <g>
   <path class="fil7" d="M56.45 200.32l-11.11 -6.11 0 0 -0.02 0.04 -0.02 0.05 -0.02 0.05 -0.01 0.04 -0.01 0.04 0 0.03 -0.01 0.02 0 0.01 0 0 0 -0.02 0 -0.03 -0.01 -0.05 -0.02 -0.05 -0.02 -0.07 -0.02 -0.08 -0.04 -0.09 -0.05 -0.1 -0.05 -0.1 -0.07 -0.12 -0.08 -0.12 -0.08 -0.12 -0.1 -0.13 -0.11 -0.13 -0.12 -0.13 -0.13 -0.13 -0.14 -0.14 -0.15 -0.13 -0.16 -0.12 -0.16 -0.13 -0.18 -0.12 -0.19 -0.12 -0.2 -0.12 6.09 -11.08 0.63 0.36 0.6 0.38 0.59 0.4 0.57 0.43 0.55 0.44 0.52 0.46 0.51 0.47 0.48 0.5 0.47 0.51 0.43 0.53 0.42 0.54 0.39 0.56 0.37 0.58 0.34 0.59 0.32 0.61 0.29 0.62 0.26 0.63 0.23 0.65 0.21 0.67 0.16 0.68 0.14 0.69 0.1 0.7 0.06 0.72 0.02 0.72 -0.02 0.73 -0.06 0.74 -0.11 0.74 -0.16 0.74 -0.21 0.73 -0.25 0.73 -0.31 0.71 -0.35 0.7 0 0zm-20.11 4.24l6.09 -11.08 0 0 0.21 0.11 0.2 0.09 0.2 0.09 0.19 0.07 0.2 0.07 0.19 0.06 0.18 0.04 0.19 0.04 0.17 0.03 0.17 0.02 0.16 0.02 0.15 0.01 0.14 0 0.13 -0.01 0.12 -0.01 0.11 -0.01 0.1 -0.02 0.08 -0.02 0.07 -0.02 0.05 -0.02 0.04 -0.01 0.03 -0.02 0.02 0 0 -0.01 0 0.01 -0.02 0.01 -0.02 0.02 -0.03 0.03 -0.03 0.03 -0.03 0.04 -0.03 0.05 -0.03 0.04 11.11 6.11 -0.4 0.67 -0.44 0.64 -0.48 0.6 -0.51 0.57 -0.53 0.53 -0.57 0.49 -0.59 0.45 -0.6 0.41 -0.63 0.37 -0.64 0.33 -0.64 0.29 -0.66 0.26 -0.66 0.22 -0.67 0.18 -0.68 0.16 -0.67 0.12 -0.68 0.08 -0.68 0.06 -0.69 0.03 -0.68 0 -0.69 -0.04 -0.68 -0.06 -0.68 -0.08 -0.68 -0.12 -0.67 -0.14 -0.68 -0.17 -0.67 -0.2 -0.66 -0.23 -0.66 -0.25 -0.66 -0.28 -0.64 -0.31 -0.64 -0.34 0 0zm-7.19 -19.25l11.11 6.1 0 0 0.02 -0.04 0.02 -0.05 0.02 -0.05 0.01 -0.04 0.01 -0.04 0 -0.03 0.01 -0.02 0 -0.01 0 0.01 0 0.02 0 0.03 0.01 0.04 0.02 0.06 0.02 0.06 0.02 0.08 0.04 0.09 0.05 0.1 0.05 0.11 0.07 0.11 0.08 0.12 0.08 0.13 0.1 0.12 0.11 0.13 0.12 0.14 0.13 0.13 0.14 0.13 0.15 0.13 0.16 0.13 0.16 0.12 0.18 0.13 0.19 0.12 0.2 0.11 -6.09 11.08 -0.63 -0.36 -0.6 -0.38 -0.59 -0.4 -0.57 -0.42 -0.55 -0.44 -0.52 -0.46 -0.51 -0.48 -0.48 -0.49 -0.46 -0.52 -0.44 -0.52 -0.42 -0.55 -0.39 -0.56 -0.37 -0.58 -0.34 -0.59 -0.32 -0.6 -0.29 -0.62 -0.26 -0.64 -0.23 -0.65 -0.21 -0.67 -0.16 -0.68 -0.14 -0.69 -0.1 -0.7 -0.06 -0.72 -0.02 -0.72 0.02 -0.73 0.06 -0.74 0.11 -0.74 0.16 -0.74 0.21 -0.73 0.25 -0.73 0.31 -0.71 0.35 -0.69 0 0zm20.11 -4.25l-6.09 11.08 0 0 -0.21 -0.1 -0.2 -0.1 -0.2 -0.08 -0.19 -0.08 -0.2 -0.07 -0.19 -0.05 -0.18 -0.05 -0.19 -0.04 -0.17 -0.03 -0.17 -0.02 -0.16 -0.01 -0.15 -0.01 -0.14 0 -0.13 0 -0.12 0.01 -0.11 0.02 -0.1 0.01 -0.08 0.02 -0.07 0.02 -0.05 0.02 -0.04 0.02 -0.03 0.01 -0.02 0.01 0 0 0 -0.01 0.02 -0.01 0.02 -0.02 0.03 -0.03 0.03 -0.03 0.03 -0.04 0.03 -0.04 0.03 -0.05 -11.11 -6.1 0.4 -0.67 0.44 -0.64 0.48 -0.61 0.5 -0.57 0.54 -0.52 0.57 -0.49 0.59 -0.45 0.6 -0.41 0.63 -0.37 0.63 -0.33 0.65 -0.3 0.66 -0.25 0.66 -0.22 0.67 -0.19 0.68 -0.15 0.67 -0.12 0.68 -0.09 0.68 -0.06 0.69 -0.02 0.68 0 0.68 0.03 0.69 0.06 0.68 0.09 0.68 0.11 0.67 0.15 0.68 0.17 0.67 0.2 0.66 0.22 0.66 0.26 0.66 0.28 0.64 0.31 0.64 0.33 0 0z"/>
   <path id="1" class="fil1" d="M46.22 186.6c4.47,2.46 6.56,7.23 4.67,10.66 -1.88,3.43 -7.04,4.22 -11.51,1.76 -4.47,-2.46 -6.56,-7.23 -4.67,-10.66 1.88,-3.43 7.03,-4.22 11.51,-1.76z"/>
  </g>
  <g>
   <g>
    <path class="fil0 str20" d="M141.53 153.08c1.39,9.3 3.69,18.92 12.12,30.73 4.39,8.14 18.49,1.87 23.94,-2.52 7.65,-6.16 10.14,-15.77 8.24,-26.45 -1.33,-7.51 -2.88,-15.06 -6.18,-15.67 1.35,-5.03 1.47,-11.12 -4.77,-12.43 1.24,8.71 -6.11,15.91 -13.17,19.73 -5.97,3.24 -13.04,4.98 -20.18,6.61z"/>
    <path id="1" class="fil13" d="M141.53 153.08c1.39,9.3 3.69,18.92 12.12,30.73 4.39,8.14 18.49,1.87 23.94,-2.52 7.65,-6.16 10.14,-15.77 8.24,-26.45 -1.33,-7.51 -2.88,-15.06 -6.18,-15.67 1.35,-5.03 1.47,-11.12 -4.77,-12.43 1.24,8.71 -6.11,15.91 -13.17,19.73 -5.97,3.24 -13.04,4.98 -20.18,6.61z"/>
   </g>
   <g>
    <path class="fil0 str21" d="M85.05 186.48c-3.07,-1.45 -6.26,-2.99 -9.38,-8.39 -3.37,-5.87 -5.41,-24.3 -1.91,-29.9 -4.69,-12.56 -3.95,-20.03 5.38,-20.07 -1.63,12.75 1.01,21.86 10.41,24.58 4.77,4.35 7.55,9.52 8.21,15.56 2.24,20.37 1.28,24.79 -12.71,18.22z"/>
    <path id="1" class="fil13" d="M85.05 186.48c-3.07,-1.45 -6.26,-2.99 -9.38,-8.39 -3.37,-5.87 -5.41,-24.3 -1.91,-29.9 -4.69,-12.56 -3.95,-20.03 5.38,-20.07 -1.63,12.75 1.01,21.86 10.41,24.58 4.77,4.35 7.55,9.52 8.21,15.56 2.24,20.37 1.28,24.79 -12.71,18.22z"/>
   </g>
   <g>
    <path class="fil0 str22" d="M147.15 158.34c19.53,-3.67 30.32,-12.07 33.81,-20.75"/>
   </g>
   <g>
    <path class="fil0 str1" d="M138.38 150.96c-15.56,4.76 -31.12,9.52 -46.68,14.28 -2.07,1.68 -3,4.54 -2.73,8.63 0.44,6.99 3.89,23.53 8.56,28.18 7.06,7.04 17.99,6.9 27.22,5.92 9.5,-1.01 19.17,-4.81 26.06,-11.61 2.62,-2.58 3.83,-5.22 4.08,-7.92 0.29,-3.14 -6.51,-27.27 -8.99,-31.84 -1.92,-3.52 -4.49,-5.22 -7.52,-5.64z"/>
    <path id="1" class="fil14" d="M138.38 150.96c-15.56,4.76 -31.12,9.52 -46.68,14.28 -2.07,1.68 -3,4.54 -2.73,8.63 0.44,6.99 3.89,23.53 8.56,28.18 7.06,7.04 17.99,6.9 27.22,5.92 9.5,-1.01 19.17,-4.81 26.06,-11.61 2.62,-2.58 3.83,-5.22 4.08,-7.92 0.29,-3.14 -6.51,-27.27 -8.99,-31.84 -1.92,-3.52 -4.49,-5.22 -7.52,-5.64z"/>
   </g>
   <path class="fil15" d="M137 153.41c-14.22,4.35 -28.45,8.7 -42.67,13.05 -1.89,1.53 -2.74,4.15 -2.5,7.89 0.41,6.38 3.56,21.5 7.83,25.75 6.45,6.43 16.44,6.3 24.88,5.41 8.68,-0.92 17.52,-4.39 23.82,-10.61 2.39,-2.36 3.5,-4.78 3.73,-7.24 0.27,-2.87 -5.95,-24.93 -8.22,-29.1 -1.75,-3.22 -4.1,-4.77 -6.87,-5.15z"/>
   <g>
    <path class="fil0 str23" d="M71.15 142.35c1.84,8.59 6.49,15.6 16.35,19.68"/>
   </g>
   <g>
    <path class="fil0 str1" d="M93.73 166.87c-4.31,-0.4 -5.83,-2.44 -6.49,-5.15 -0.71,-2.94 -1.92,-5.83 0.89,-9.15 8.04,-9.52 36.55,-16.9 47.46,-13.32 3.18,1.05 5.02,3.3 5.69,5.77 0.8,2.92 -0.01,6.14 -2.1,8.06 -4.3,3.95 -16.54,9.56 -27.14,12.29 -7.92,2.04 -14.56,1.84 -18.31,1.5z"/>
    <path id="1" class="fil16" d="M93.73 166.87c-4.31,-0.4 -5.83,-2.44 -6.49,-5.15 -0.71,-2.94 -1.92,-5.83 0.89,-9.15 8.04,-9.52 36.55,-16.9 47.46,-13.32 3.18,1.05 5.02,3.3 5.69,5.77 0.8,2.92 -0.01,6.14 -2.1,8.06 -4.3,3.95 -16.54,9.56 -27.14,12.29 -7.92,2.04 -14.56,1.84 -18.31,1.5z"/>
   </g>
   <path class="fil11" d="M90.04 153.45c7.64,-9.04 34.73,-16.06 45.09,-12.65 3.89,1.27 2.69,4.54 0.3,6.74 -3.98,3.65 -15.3,8.85 -25.11,11.37 -7.33,1.89 -13.47,1.71 -16.94,1.39 -4.7,-0.44 -6.64,-2.94 -3.34,-6.85z"/>
   <g>
    <path class="fil0 str10" d="M91.23 156.69c3.02,5.57 42.57,-4.08 43.77,-13.34"/>
   </g>
   <g>
    <path class="fil0 str24" d="M143.72 185.19c-0.62,6.16 -6.38,8.31 -14.93,4.68 -1.77,-0.99 -3.31,-2.09 -4.64,-3.3 -4.27,-3.9 -6.29,-9.36 -6.19,-15.07 0.04,-2.55 0.74,-4.36 2.5,-5.01 4.02,-0.64 5.32,1.4 6.42,4.89 0.6,1.9 2.64,4.41 5.47,5.53 4.07,1.61 11.84,1.12 11.37,8.28z"/>
    <path id="1" class="fil17" d="M143.72 185.19c-0.62,6.16 -6.38,8.31 -14.93,4.68 -1.77,-0.99 -3.31,-2.09 -4.64,-3.3 -4.27,-3.9 -6.29,-9.36 -6.19,-15.07 0.04,-2.55 0.74,-4.36 2.5,-5.01 4.02,-0.64 5.32,1.4 6.42,4.89 0.6,1.9 2.64,4.41 5.47,5.53 4.07,1.61 11.84,1.12 11.37,8.28z"/>
   </g>
   <path class="fil18" d="M133.35 191.33c-1.41,-0.29 -2.93,-0.77 -4.56,-1.46 -1.77,-0.99 -3.31,-2.09 -4.64,-3.3 -4.27,-3.9 -6.29,-9.36 -6.19,-15.07 0.01,-0.68 0.06,-1.3 0.18,-1.87 0.35,-0.58 0.79,-1.01 1.32,-1.2 3.46,-0.56 4.36,2.23 5.31,5.23 0.52,1.63 2.27,3.8 4.71,4.76 3.5,1.39 10.08,1.75 9.67,7.92 -0.34,3.37 -2.43,5.03 -5.8,4.99z"/>
   <g>
    <path class="fil0 str25" d="M104.82 169.56c4.26,-0.47 6.56,3.12 5.35,9.44 -0.42,1.35 -0.94,2.56 -1.57,3.63 -2.02,3.47 -5.42,5.63 -9.32,6.4 -1.73,0.34 -3.06,0.13 -3.76,-0.97 -1.02,-2.64 0.18,-3.81 2.38,-5.07 1.2,-0.68 2.61,-2.43 2.96,-4.51 0.5,-3 -0.97,-8.19 3.96,-8.92z"/>
    <path id="1" class="fil18" d="M104.82 169.56c4.26,-0.47 6.56,3.12 5.35,9.44 -0.42,1.35 -0.94,2.56 -1.57,3.63 -2.02,3.47 -5.42,5.63 -9.32,6.4 -1.73,0.34 -3.06,0.13 -3.76,-0.97 -1.02,-2.64 0.18,-3.81 2.38,-5.07 1.2,-0.68 2.61,-2.43 2.96,-4.51 0.5,-3 -0.97,-8.19 3.96,-8.92z"/>
   </g>
   <g>
    <path class="fil0 str26" d="M143.31 177.74c4.71,-0.52 7.24,3.44 5.9,10.42 -0.46,1.48 -1.03,2.81 -1.73,4 -2.23,3.82 -5.98,6.21 -10.28,7.06 -1.91,0.37 -3.38,0.14 -4.15,-1.07 -1.12,-2.91 0.2,-4.21 2.63,-5.59 1.32,-0.76 2.88,-2.69 3.26,-4.98 0.55,-3.31 -1.07,-9.04 4.37,-9.84z"/>
    <path id="1" class="fil18" d="M143.31 177.74c4.71,-0.52 7.24,3.44 5.9,10.42 -0.46,1.48 -1.03,2.81 -1.73,4 -2.23,3.82 -5.98,6.21 -10.28,7.06 -1.91,0.37 -3.38,0.14 -4.15,-1.07 -1.12,-2.91 0.2,-4.21 2.63,-5.59 1.32,-0.76 2.88,-2.69 3.26,-4.98 0.55,-3.31 -1.07,-9.04 4.37,-9.84z"/>
   </g>
   <g>
    <path class="fil0 str27" d="M119.5 184.12c6.49,0 11.74,4.44 11.74,9.91 0,5.48 -5.25,9.91 -11.74,9.91 -6.48,0 -11.74,-4.43 -11.74,-9.91 0,-5.47 5.26,-9.91 11.74,-9.91z"/>
    <path id="1" class="fil19" d="M119.5 184.12c6.49,0 11.74,4.44 11.74,9.91 0,5.48 -5.25,9.91 -11.74,9.91 -6.48,0 -11.74,-4.43 -11.74,-9.91 0,-5.47 5.26,-9.91 11.74,-9.91z"/>
   </g>
   <path class="fil20" d="M121.29 185.22c4.38,0 7.93,3 7.93,6.7 0,3.7 -3.55,6.7 -7.93,6.7 -4.39,0 -4.65,-2.81 -4.65,-6.51 0,-3.7 0.26,-6.89 4.65,-6.89z"/>
   <g>
    <path class="fil0 str1" d="M108.98 203.19c-6.61,0.73 -10.17,-4.86 -8.26,-14.65 0.64,-2.09 1.46,-3.96 2.43,-5.62 3.15,-5.37 8.43,-8.72 14.47,-9.89 2.69,-0.53 4.76,-0.2 5.83,1.51 1.57,4.09 -0.29,5.91 -3.71,7.85 -1.86,1.06 -4.05,3.76 -4.59,6.99 -0.79,4.64 1.47,12.71 -6.17,13.81z"/>
    <path id="1" class="fil18" d="M108.98 203.19c-6.61,0.73 -10.17,-4.86 -8.26,-14.65 0.64,-2.09 1.46,-3.96 2.43,-5.62 3.15,-5.37 8.43,-8.72 14.47,-9.89 2.69,-0.53 4.76,-0.2 5.83,1.51 1.57,4.09 -0.29,5.91 -3.71,7.85 -1.86,1.06 -4.05,3.76 -4.59,6.99 -0.79,4.64 1.47,12.71 -6.17,13.81z"/>
   </g>
   <path class="fil21" d="M100.21 193.66c-0.02,-1.55 0.14,-3.26 0.51,-5.12 0.64,-2.09 1.46,-3.96 2.43,-5.62 3.15,-5.37 8.43,-8.72 14.47,-9.89 0.71,-0.14 1.38,-0.22 2,-0.23 0.69,0.24 1.25,0.61 1.57,1.12 1.35,3.52 -1.38,5.09 -4.32,6.76 -1.6,0.91 -3.49,3.24 -3.96,6.02 -0.67,4 0.42,10.99 -6.16,11.94 -3.62,0.4 -5.84,-1.42 -6.54,-4.98z"/>
   <path class="fil11" d="M134.58 160.01c-4.67,2.31 -10.95,3.56 -9.33,8.26 1.22,3.53 2.56,4.83 4.55,3.72 3.59,-2.01 2.44,-6.06 7.96,-9.2 3.99,-2.26 0.76,-4.74 -3.18,-2.78z"/>
   <g>
    <g>
     <path class="fil0 str28" d="M142.33 183.03c-7.68,-4.39 -10.52,-18.33 2.34,-17.56 12.05,0.72 11.39,-0.4 21,-7.81 8.3,-6.39 11.75,6.68 10.46,13.28 -1.13,5.78 -7.15,10.03 -12.35,12.12 -6.82,2.74 -15.66,3.29 -21.45,-0.03z"/>
     <path id="1" class="fil3" d="M142.33 183.03c-7.68,-4.39 -10.52,-18.33 2.34,-17.56 12.05,0.72 11.39,-0.4 21,-7.81 8.3,-6.39 11.75,6.68 10.46,13.28 -1.13,5.78 -7.15,10.03 -12.35,12.12 -6.82,2.74 -15.66,3.29 -21.45,-0.03z"/>
    </g>
    <path class="fil4" d="M136.8 176.68c-2.36,-5.46 -0.88,-11.73 7.87,-11.21 12.05,0.72 11.39,-0.4 21,-7.81 1.49,-1.14 2.82,-1.66 3.99,-1.71 1.84,3.28 2.43,8.58 1.8,12.07 -1.04,5.79 -6.58,10.04 -11.37,12.12 -6.29,2.74 -14.43,3.29 -19.76,-0.02 -1.37,-0.85 -2.57,-2.06 -3.53,-3.44z"/>
   </g>
   <g>
    <path class="fil0 str29" d="M69.73 172.74c0.72,8.86 9.28,13.97 17.4,15.36 3.2,0.54 5.09,-0.4 6.12,-2.31 3.2,-5.94 -1.23,-9.4 -4.63,-13.74 -1.96,-2.5 -3.88,-5.04 -5.74,-7.67 -2.08,-2.95 -4.01,-7.01 -8.4,-4.67 -3.05,1.63 -5.28,6.4 -4.75,13.03z"/>
    <path id="1" class="fil3" d="M69.73 172.74c0.72,8.86 9.28,13.97 17.4,15.36 3.2,0.54 5.09,-0.4 6.12,-2.31 3.2,-5.94 -1.23,-9.4 -4.63,-13.74 -1.96,-2.5 -3.88,-5.04 -5.74,-7.67 -2.08,-2.95 -4.01,-7.01 -8.4,-4.67 -3.05,1.63 -5.28,6.4 -4.75,13.03z"/>
   </g>
   <path class="fil4" d="M94.18 183.37c1.01,-4.53 -2.65,-7.6 -5.56,-11.32 -1.96,-2.5 -3.88,-5.04 -5.74,-7.67 -1.68,-2.39 -3.26,-5.5 -6.13,-5.36 -2.49,1.79 -4.21,5.97 -3.75,11.61 0.66,8.16 8.55,12.87 16.02,14.14 2.51,0.43 4.15,-0.14 5.16,-1.4z"/>
   <g>
    <path class="fil0 str30" d="M93.63 186.32c-1.24,1.03 -3.13,0.56 -4.67,-0.37"/>
   </g>
   <g>
    <path class="fil0 str31" d="M94.88 183.31c-1.23,1.04 -3.13,0.56 -4.67,-0.37"/>
   </g>
   <g>
    <path class="fil0 str32" d="M135.32 175.14c0.48,1.54 2.33,2.16 4.13,2.21"/>
   </g>
   <g>
    <path class="fil0 str33" d="M135.67 170.87c0.48,1.54 2.33,2.16 4.13,2.21"/>
   </g>
  </g>
  <g>
   <path class="fil0 str14" d="M28.24 209.3c-3.84,-5.23 -7.29,-10.75 -10.33,-16.54 2.84,-2.35 7.57,-2.86 12.06,-0.99 5.9,2.47 9.15,8.14 7.26,12.67 -1.35,3.21 -4.92,4.98 -8.99,4.86z"/>
   <path id="1" class="fil2" d="M28.24 209.3c-3.84,-5.23 -7.29,-10.75 -10.33,-16.54 2.84,-2.35 7.57,-2.86 12.06,-0.99 5.9,2.47 9.15,8.14 7.26,12.67 -1.35,3.21 -4.92,4.98 -8.99,4.86z"/>
  </g>
  <ellipse class="fil1" transform="matrix(0.546009 0.228326 -0.184537 0.441292 27.0389 196.51)" rx="12.32" ry="11.69"/>
  <g>
   <path class="fil0 str34" d="M29.98 211.4c-0.86,-1.12 -1.7,-2.24 -2.52,-3.39l37.72 -14.46 -35.68 -12.53 6.1 -1.14 40.81 14.11 -46.43 17.41z"/>
   <path id="1" class="fil1" d="M29.98 211.4c-0.86,-1.12 -1.7,-2.24 -2.52,-3.39l37.72 -14.46 -35.68 -12.53 6.1 -1.14 40.81 14.11 -46.43 17.41z"/>
  </g>
  <g>
   <path class="fil7" d="M48.37 190.85l-3.74 -2.06 0 0 0.09 -0.19 0.09 -0.19 0.07 -0.2 0.05 -0.2 0.05 -0.21 0.03 -0.22 0.02 -0.22 0.01 -0.22 -0.01 -0.24 -0.02 -0.23 -0.04 -0.25 -0.04 -0.25 -0.07 -0.25 -0.07 -0.25 -0.1 -0.26 -0.1 -0.26 -0.13 -0.26 -0.13 -0.27 -0.16 -0.26 -0.16 -0.26 -0.18 -0.26 -0.2 -0.25 -0.21 -0.26 -0.22 -0.24 -0.24 -0.25 -0.25 -0.23 -0.27 -0.23 -0.27 -0.23 -0.29 -0.21 -0.31 -0.21 -0.31 -0.2 -0.33 -0.19 2.05 -3.73 0.47 0.27 0.46 0.29 0.44 0.3 0.43 0.31 0.4 0.33 0.39 0.34 0.38 0.36 0.36 0.36 0.34 0.38 0.32 0.38 0.3 0.4 0.29 0.41 0.26 0.41 0.24 0.42 0.23 0.43 0.2 0.44 0.19 0.45 0.16 0.45 0.14 0.45 0.11 0.47 0.09 0.46 0.07 0.47 0.04 0.48 0.01 0.47 -0.01 0.47 -0.04 0.48 -0.07 0.47 -0.1 0.48 -0.13 0.46 -0.17 0.46 -0.19 0.45 -0.22 0.44 0 0zm-14.07 2.55l2.05 -3.74 0 0 0.34 0.18 0.33 0.16 0.34 0.14 0.34 0.13 0.34 0.12 0.33 0.1 0.34 0.08 0.33 0.07 0.33 0.06 0.33 0.04 0.32 0.03 0.31 0.02 0.31 0 0.3 -0.02 0.3 -0.02 0.28 -0.04 0.28 -0.05 0.27 -0.06 0.26 -0.07 0.24 -0.08 0.24 -0.09 0.22 -0.1 0.21 -0.11 0.2 -0.12 0.19 -0.13 0.18 -0.13 0.16 -0.14 0.16 -0.15 0.14 -0.16 0.13 -0.17 0.12 -0.17 0.11 -0.19 3.74 2.06 -0.25 0.43 -0.28 0.4 -0.3 0.38 -0.33 0.36 -0.34 0.34 -0.36 0.31 -0.38 0.29 -0.4 0.27 -0.41 0.24 -0.42 0.22 -0.43 0.2 -0.44 0.17 -0.45 0.15 -0.46 0.13 -0.47 0.1 -0.47 0.09 -0.48 0.06 -0.49 0.04 -0.48 0.02 -0.5 0 -0.49 -0.03 -0.5 -0.04 -0.5 -0.06 -0.5 -0.09 -0.5 -0.11 -0.49 -0.12 -0.5 -0.15 -0.5 -0.17 -0.49 -0.19 -0.49 -0.21 -0.49 -0.23 -0.48 -0.25 0 0zm-5.39 -13.25l3.74 2.06 0 0 -0.1 0.19 -0.08 0.19 -0.07 0.2 -0.06 0.21 -0.04 0.21 -0.03 0.21 -0.02 0.22 -0.01 0.23 0.01 0.23 0.02 0.24 0.03 0.24 0.05 0.25 0.07 0.25 0.07 0.26 0.09 0.25 0.11 0.26 0.12 0.27 0.14 0.26 0.15 0.26 0.17 0.26 0.18 0.26 0.2 0.26 0.21 0.25 0.22 0.25 0.24 0.24 0.25 0.24 0.26 0.23 0.28 0.22 0.29 0.22 0.31 0.2 0.31 0.2 0.33 0.19 -2.05 3.74 -0.48 -0.28 -0.45 -0.28 -0.44 -0.3 -0.43 -0.32 -0.41 -0.33 -0.39 -0.34 -0.37 -0.35 -0.36 -0.37 -0.34 -0.38 -0.32 -0.38 -0.3 -0.4 -0.29 -0.4 -0.26 -0.42 -0.25 -0.42 -0.22 -0.43 -0.21 -0.44 -0.18 -0.44 -0.16 -0.46 -0.14 -0.45 -0.11 -0.46 -0.09 -0.47 -0.07 -0.47 -0.04 -0.47 -0.02 -0.48 0.02 -0.47 0.04 -0.48 0.07 -0.47 0.1 -0.47 0.13 -0.47 0.16 -0.46 0.2 -0.45 0.22 -0.44 0 0zm14.07 -2.54l-2.05 3.73 0 0 -0.34 -0.18 -0.33 -0.16 -0.34 -0.14 -0.34 -0.13 -0.34 -0.12 -0.33 -0.1 -0.34 -0.08 -0.33 -0.07 -0.33 -0.06 -0.33 -0.04 -0.32 -0.03 -0.31 -0.01 -0.31 0 -0.31 0.01 -0.29 0.02 -0.29 0.04 -0.27 0.05 -0.27 0.06 -0.26 0.07 -0.25 0.08 -0.23 0.09 -0.22 0.11 -0.22 0.11 -0.2 0.11 -0.18 0.13 -0.18 0.13 -0.16 0.15 -0.16 0.15 -0.14 0.15 -0.13 0.17 -0.12 0.17 -0.11 0.19 -3.74 -2.06 0.25 -0.42 0.28 -0.41 0.3 -0.38 0.33 -0.36 0.34 -0.34 0.36 -0.31 0.38 -0.29 0.39 -0.27 0.41 -0.24 0.42 -0.22 0.44 -0.2 0.44 -0.17 0.45 -0.15 0.46 -0.13 0.47 -0.1 0.47 -0.08 0.48 -0.07 0.48 -0.04 0.49 -0.02 0.49 0.01 0.5 0.02 0.5 0.04 0.49 0.07 0.5 0.08 0.5 0.11 0.5 0.12 0.5 0.15 0.5 0.17 0.49 0.19 0.49 0.21 0.49 0.23 0.48 0.26 0 0z"/>
   <path id="1" class="fil1" d="M41.95 179.47c4.34,2.39 6.38,7.02 4.55,10.35 -1.83,3.33 -6.84,4.1 -11.18,1.71 -4.34,-2.39 -6.37,-7.02 -4.54,-10.35 1.83,-3.33 6.83,-4.09 11.17,-1.71z"/>
  </g>
  <g>
   <path class="fil0 str14" d="M12.28 180.52c-1.39,-3.5 -2.62,-7.07 -3.71,-10.7 3.26,-1.93 8.99,-2.12 14.08,-0.24 6.1,2.25 8.96,6.61 6.38,9.75 -2.57,3.13 -9.61,3.85 -15.71,1.6 -0.35,-0.13 -0.7,-0.27 -1.04,-0.41z"/>
   <path id="1" class="fil1" d="M12.28 180.52c-1.39,-3.5 -2.62,-7.07 -3.71,-10.7 3.26,-1.93 8.99,-2.12 14.08,-0.24 6.1,2.25 8.96,6.61 6.38,9.75 -2.57,3.13 -9.61,3.85 -15.71,1.6 -0.35,-0.13 -0.7,-0.27 -1.04,-0.41z"/>
  </g>
  <g>
   <path class="fil7" d="M35.55 186.06l-3.74 -2.06 0 0 0.05 -0.09 0.04 -0.1 0.03 -0.1 0.03 -0.1 0.02 -0.1 0.02 -0.11 0.01 -0.12 0 -0.11 0 -0.13 -0.01 -0.13 -0.02 -0.13 -0.03 -0.14 -0.03 -0.14 -0.05 -0.15 -0.05 -0.15 -0.07 -0.15 -0.07 -0.16 -0.08 -0.15 -0.09 -0.16 -0.1 -0.16 -0.11 -0.16 -0.12 -0.15 -0.13 -0.16 -0.14 -0.15 -0.14 -0.15 -0.16 -0.15 -0.16 -0.14 -0.18 -0.14 -0.18 -0.13 -0.19 -0.13 -0.19 -0.13 -0.21 -0.12 2.05 -3.73 0.35 0.2 0.34 0.22 0.33 0.22 0.31 0.23 0.31 0.25 0.29 0.25 0.28 0.26 0.26 0.28 0.26 0.28 0.24 0.29 0.22 0.29 0.22 0.31 0.19 0.31 0.19 0.32 0.17 0.32 0.15 0.33 0.14 0.34 0.12 0.34 0.11 0.35 0.09 0.35 0.07 0.36 0.05 0.36 0.03 0.36 0.01 0.37 -0.01 0.37 -0.03 0.37 -0.06 0.36 -0.08 0.37 -0.1 0.37 -0.13 0.35 -0.15 0.36 -0.17 0.34 0 0zm-10.65 2.02l2.05 -3.73 0 0 0.21 0.11 0.21 0.1 0.21 0.09 0.21 0.08 0.21 0.07 0.21 0.06 0.21 0.06 0.21 0.04 0.2 0.04 0.2 0.02 0.19 0.02 0.19 0.01 0.19 0 0.18 -0.01 0.18 -0.01 0.17 -0.03 0.16 -0.02 0.16 -0.04 0.14 -0.04 0.14 -0.05 0.13 -0.05 0.13 -0.05 0.11 -0.06 0.11 -0.07 0.1 -0.06 0.09 -0.07 0.08 -0.08 0.08 -0.07 0.07 -0.08 0.06 -0.08 0.06 -0.09 0.06 -0.09 3.74 2.06 -0.2 0.33 -0.21 0.32 -0.24 0.3 -0.25 0.28 -0.27 0.26 -0.28 0.24 -0.3 0.23 -0.3 0.2 -0.32 0.19 -0.32 0.17 -0.33 0.15 -0.34 0.13 -0.35 0.12 -0.35 0.09 -0.35 0.08 -0.36 0.07 -0.36 0.04 -0.37 0.03 -0.36 0.02 -0.37 0 -0.37 -0.02 -0.37 -0.03 -0.38 -0.05 -0.37 -0.06 -0.37 -0.08 -0.37 -0.1 -0.37 -0.11 -0.37 -0.12 -0.37 -0.14 -0.36 -0.16 -0.37 -0.17 -0.35 -0.19 0 0zm-4 -10.08l3.74 2.06 0 0 -0.05 0.1 -0.04 0.09 -0.03 0.1 -0.03 0.1 -0.02 0.1 -0.02 0.11 -0.01 0.12 0 0.12 0 0.12 0.01 0.13 0.02 0.14 0.03 0.13 0.03 0.15 0.05 0.14 0.05 0.15 0.07 0.16 0.07 0.15 0.08 0.16 0.09 0.15 0.1 0.16 0.11 0.16 0.12 0.15 0.13 0.16 0.14 0.15 0.14 0.15 0.16 0.15 0.16 0.14 0.18 0.14 0.18 0.14 0.19 0.13 0.19 0.12 0.21 0.12 -2.05 3.73 -0.35 -0.2 -0.34 -0.21 -0.33 -0.23 -0.31 -0.23 -0.31 -0.25 -0.29 -0.25 -0.28 -0.26 -0.26 -0.27 -0.26 -0.29 -0.24 -0.28 -0.22 -0.3 -0.22 -0.3 -0.19 -0.32 -0.19 -0.31 -0.17 -0.33 -0.15 -0.33 -0.14 -0.34 -0.12 -0.34 -0.11 -0.35 -0.09 -0.35 -0.07 -0.36 -0.05 -0.36 -0.03 -0.36 -0.01 -0.37 0.01 -0.36 0.03 -0.37 0.06 -0.37 0.08 -0.37 0.1 -0.36 0.13 -0.36 0.15 -0.35 0.17 -0.35 0 0zm10.65 -2.02l-2.05 3.73 0 0 -0.21 -0.11 -0.21 -0.1 -0.21 -0.09 -0.21 -0.08 -0.21 -0.07 -0.21 -0.06 -0.21 -0.05 -0.21 -0.05 -0.2 -0.03 -0.2 -0.03 -0.19 -0.02 -0.2 0 -0.18 0 -0.18 0 -0.18 0.02 -0.17 0.02 -0.16 0.03 -0.16 0.03 -0.14 0.04 -0.14 0.05 -0.13 0.05 -0.13 0.06 -0.11 0.06 -0.11 0.06 -0.1 0.07 -0.09 0.07 -0.08 0.07 -0.08 0.07 -0.07 0.08 -0.06 0.08 -0.06 0.09 -0.06 0.09 -3.74 -2.06 0.2 -0.33 0.21 -0.31 0.24 -0.3 0.25 -0.29 0.27 -0.26 0.28 -0.24 0.3 -0.23 0.3 -0.2 0.32 -0.19 0.32 -0.17 0.33 -0.15 0.34 -0.13 0.35 -0.11 0.35 -0.1 0.35 -0.08 0.36 -0.06 0.36 -0.05 0.37 -0.03 0.36 -0.02 0.37 0 0.37 0.02 0.37 0.03 0.38 0.05 0.37 0.07 0.37 0.07 0.38 0.1 0.37 0.11 0.36 0.12 0.37 0.15 0.37 0.15 0.36 0.17 0.35 0.19 0 0z"/>
   <path id="1" class="fil1" d="M30.53 177.85c3.01,1.65 4.42,4.87 3.15,7.18 -1.27,2.31 -4.74,2.84 -7.76,1.18 -3.01,-1.65 -4.42,-4.87 -3.15,-7.18 1.27,-2.31 4.74,-2.84 7.76,-1.18z"/>
  </g>
  <g>
   <path class="fil0 str35" d="M132.7 2.13c72.12,0 130.57,58.46 130.57,130.57 0,72.12 -58.45,130.57 -130.57,130.57 -72.11,0 -130.57,-58.45 -130.57,-130.57 0,-72.11 58.46,-130.57 130.57,-130.57z"/>
  </g>
 </g>
</svg>
